<?xml version="1.0" encoding="UTF-8"?>
<svg xmlns="http://www.w3.org/2000/svg" id="Group_103527" data-name="Group 103527" width="132.801" height="25.898" viewBox="0 0 132.801 25.898">
  <path id="Path_74240" data-name="Path 74240" d="M121.285,55l10.739.007v-4h-5.877V47.225h3.564v-4h-3.564V39.554h5.877v-4H121.285" transform="translate(-83.843 -35.555)" fill="#fff" fill-rule="evenodd"></path>
  <path id="Path_74241" data-name="Path 74241" d="M185.387,55h4.858V35.559h-4.858Zm0,0" transform="translate(-119.884 -35.557)" fill="#fff" fill-rule="evenodd"></path>
  <path id="Path_74242" data-name="Path 74242" d="M71,55h4.783V40.987A1.254,1.254,0,0,1,78.3,41V55h4.831V40.987a1.253,1.253,0,0,1,2.507.01V55h4.814V40.414a4.875,4.875,0,0,0-4.86-4.86H84.092a4.844,4.844,0,0,0-3.422,1.416,4.85,4.85,0,0,0-3.422-1.416H75.865A4.877,4.877,0,0,0,71,40.414" transform="translate(-55.573 -35.555)" fill="#fff" fill-rule="evenodd"></path>
  <path id="Path_74243" data-name="Path 74243" d="M151.254,55h4.86V47.938a3.492,3.492,0,0,1,1.452.133V44.045a3.711,3.711,0,0,1-1.452.267V39.554a3.541,3.541,0,0,1,1.452.287V35.555h-6.312Zm6.312-6.927a2.2,2.2,0,0,1,1.407,2.3V55h4.86l-.029-2.7c-.022-1.908-.956-5.4-2.406-6.876a5.741,5.741,0,0,0,1.862-4.273,5.429,5.429,0,0,0-5.248-5.593h-.446v4.287a2.249,2.249,0,0,1,0,4.2" transform="translate(-100.693 -35.555)" fill="#fff" fill-rule="evenodd"></path>
  <path id="Path_74244" data-name="Path 74244" d="M207.464,35.555h3.028a4.556,4.556,0,0,1,4.542,4.542V42h-3.711c-.075-1.365-.838-2.445-1.758-2.445h-1.176c-.971,0-1.765,1.2-1.765,2.674v6.1c0,1.471.793,2.674,1.765,2.674h1.176c.971,0,1.765-1.2,1.765-2.674v-.041h3.7v2.17A4.556,4.556,0,0,1,210.492,55h-3.028a4.556,4.556,0,0,1-4.542-4.545V40.1a4.556,4.556,0,0,1,4.542-4.542" transform="translate(-129.743 -35.555)" fill="#fff" fill-rule="evenodd"></path>
  <path id="Path_74245" data-name="Path 74245" d="M42.351,61.452h-6.6V46.587c0-3.834,2.621-7.515,6.6-9.506v5.725a5.193,5.193,0,0,0-1.7,3.988h1.7v4h-1.7v6.671h1.7Zm119.6-10.66h-1.7V55H155.4V35.555a14.671,14.671,0,0,1,6.558,1.527v5.725a4.356,4.356,0,0,0-1.7-.807v4.795h1.7ZM42.351,37.082a14.671,14.671,0,0,1,6.558-1.527V55h-4.86V50.792h-1.7v-4h1.7V42a4.375,4.375,0,0,0-1.7.807Zm119.6,24.371H42.351V57.463h119.6Zm6.129,0h-6.129V57.463h1.7V50.792h-1.7v-4h1.7a5.205,5.205,0,0,0-1.7-3.988V37.082c3.976,1.99,6.6,5.672,6.6,9.506V61.452" transform="translate(-35.754 -35.555)" fill="#fff" fill-rule="evenodd"></path>
  <path id="Path_74246" data-name="Path 74246" d="M236.762,55h4.86V50.792H243.2v-4h-1.582V40.8a1.43,1.43,0,0,1,1.582-1.25v-4h-1.611a4.845,4.845,0,0,0-4.831,4.832Zm6.441-4.207h1.582V55h4.86V40.387a4.847,4.847,0,0,0-4.832-4.832H243.2v4h0a1.425,1.425,0,0,1,1.578,1.25v5.987H243.2" transform="translate(-148.769 -35.555)" fill="#fff" fill-rule="evenodd"></path>
  <path id="Path_74247" data-name="Path 74247" d="M272.82,55h4.86V40.8a1.626,1.626,0,0,1,3.163,0V55h4.861V40.387a4.847,4.847,0,0,0-4.831-4.832h-3.223a4.847,4.847,0,0,0-4.831,4.832" transform="translate(-169.043 -35.555)" fill="#fff" fill-rule="evenodd"></path>
</svg>
