<?xml version="1.0" encoding="UTF-8"?>
<svg xmlns="http://www.w3.org/2000/svg" id="Group_2102" data-name="Group 2102" width="125.267" height="26.208" viewBox="0 0 125.267 26.208">
  <g id="Ebene_1">
    <g id="Group_2101" data-name="Group 2101" transform="translate(0 0)">
      <path id="Path_17942" data-name="Path 17942" d="M86.72,271.23c0-.376-.021-.75-.042-1.107s-.083-.731-.125-1.085H76.408l-1.546,2.423-1.545,2.422h7.829a7.668,7.668,0,0,1-2.568,3.9,7.138,7.138,0,0,1-4.509,1.545,7.772,7.772,0,0,1-5.615-2.4,8.2,8.2,0,0,1-2.319-5.742,8.066,8.066,0,0,1,10.69-7.6,7.76,7.76,0,0,1,2.255,1.19l1.357-2.172,1.357-2.172a11.874,11.874,0,0,0-3.507-1.691,14.693,14.693,0,0,0-9.437.417,12.7,12.7,0,0,0-4.134,2.754,14.87,14.87,0,0,0-4.113,8.163c-.564,2.591-.877,4.948-2.777,6.827a7.773,7.773,0,0,1-5.7,2.4,8.276,8.276,0,0,1-5.825-2.422,7.891,7.891,0,0,1,0-11.336,8.307,8.307,0,0,1,5.825-2.443,9.66,9.66,0,0,1,2.652.417,7.315,7.315,0,0,1,2.234,1.148l1.378-2.172,1.378-2.172a11.959,11.959,0,0,0-3.487-1.67,14.654,14.654,0,0,0-4.134-.564,13.3,13.3,0,0,0-10.794,5.449,6.614,6.614,0,0,0-2.735-3.528,8.714,8.714,0,0,0-4.863-1.371H22V283.78H34.944a8.863,8.863,0,0,0,4.3-1.065,7.506,7.506,0,0,0,2.839-2.756,13.116,13.116,0,0,0,4.342,3.173,13.836,13.836,0,0,0,11.879-.355,13.09,13.09,0,0,0,4.636-4.113,12.419,12.419,0,0,0,4.593,4.091,13.691,13.691,0,0,0,6.389,1.545,12.534,12.534,0,0,0,9.1-3.841,13.123,13.123,0,0,0,3.7-9.228Zm-59.271-2.4v-5.491h6.2a2.829,2.829,0,0,1,1.987.772,2.757,2.757,0,0,1-1.983,4.719h-6.2Zm0,10.3v-5.7h7.432a3.078,3.078,0,0,1,2.109.814,2.723,2.723,0,0,1,.877,2.025,2.8,2.8,0,0,1-.877,2.045,3,3,0,0,1-2.109.835H27.449Z" transform="translate(-22 -258.093)" fill="#fff"></path>
      <path id="Path_17943" data-name="Path 17943" d="M370.174,282.388a.409.409,0,0,1,.021.167c0,.063.021.146.021.209a2.814,2.814,0,0,1-.75,1.983,2.673,2.673,0,0,1-1.962.794,2.821,2.821,0,0,1-2.045-.856,2.932,2.932,0,0,1,2.088-4.99,3.41,3.41,0,0,1,.94.125,2.459,2.459,0,0,1,.814.4l-.23.355-.23.355a1.865,1.865,0,0,0-.605-.313,2.387,2.387,0,0,0-.689-.1,2,2,0,0,0-1.419.584,2.08,2.08,0,0,0-.584,1.482,2.14,2.14,0,0,0,.564,1.482,1.89,1.89,0,0,0,1.4.605,1.861,1.861,0,0,0,1.252-.438,1.909,1.909,0,0,0,.584-1.107h-1.9l.25-.4.25-.4,2.234.063Zm9.437,3.194a3.006,3.006,0,0,0,2.088-.856,2.873,2.873,0,0,0,0-4.091,2.968,2.968,0,0,0-2.088-.856,2.9,2.9,0,1,0,0,5.8Zm5.052-5.7v3.425a1.42,1.42,0,1,0,2.839,0v-3.424h.877v3.424a2.333,2.333,0,0,1-3.946,1.628,2.2,2.2,0,0,1-.668-1.628v-3.424Zm-10.94,0a1.924,1.924,0,0,1,1.4.522,1.73,1.73,0,0,1,.522,1.274,1.8,1.8,0,0,1-.334,1.065,1.477,1.477,0,0,1-.918.584l.668,1.065.668,1.065h-1.045l-.627-1-.627-1h-1.065v2h-.9v-5.574Zm18.456,0a2.108,2.108,0,0,1,1.419.522,1.778,1.778,0,0,1,.522,1.3,1.814,1.814,0,0,1-.522,1.3,1.978,1.978,0,0,1-1.42.522h-1.274v1.942h-.9v-5.574Zm-12.568,4.865a1.936,1.936,0,0,1-1.42-.605,2.119,2.119,0,0,1,0-2.923,1.972,1.972,0,0,1,1.42-.605,2.019,2.019,0,0,1,1.441.605,2.142,2.142,0,0,1,.584,1.461,2.066,2.066,0,0,1-.584,1.461,1.949,1.949,0,0,1-1.441.605Zm12.568-2.025a1.085,1.085,0,0,0,.731-.273.942.942,0,0,0,.292-.731.974.974,0,0,0-.292-.731,1.084,1.084,0,0,0-.731-.273h-1.274v2Zm-18.456-.083a1.016,1.016,0,0,0,.71-.25.959.959,0,0,0,.273-.71.931.931,0,0,0-.981-.981h-1.357v1.942ZM418.3,272.617a.41.41,0,0,1,.021.167c0,.063.021.146.021.209a2.814,2.814,0,0,1-.75,1.983,2.688,2.688,0,0,1-1.962.814,2.787,2.787,0,0,1-2.045-.856,2.9,2.9,0,0,1-.835-2.067,2.834,2.834,0,0,1,.856-2.067,2.918,2.918,0,0,1,2.065-.856,3.409,3.409,0,0,1,.94.125,2.46,2.46,0,0,1,.814.4l-.23.355-.23.355a1.863,1.863,0,0,0-.605-.313,2.386,2.386,0,0,0-.689-.1,2,2,0,0,0-1.42.584,2.2,2.2,0,0,0-.021,2.965,1.89,1.89,0,0,0,1.4.605,1.86,1.86,0,0,0,1.253-.438,1.909,1.909,0,0,0,.584-1.107h-1.9l.25-.4.25-.4,2.234.042Zm-28.831-2.5v3.424a1.42,1.42,0,1,0,2.839,0v-3.424h.877v3.424a2.333,2.333,0,0,1-3.946,1.628,2.2,2.2,0,0,1-.668-1.628v-3.424Zm-4.155,5.7a2.132,2.132,0,0,0,1.441-.477,1.624,1.624,0,0,0,.522-1.211,1.3,1.3,0,0,0-.522-1.107,3.753,3.753,0,0,0-1.169-.522,3.21,3.21,0,0,1-.877-.334.614.614,0,0,1-.334-.564.771.771,0,0,1,.23-.564,1.056,1.056,0,0,1,.731-.23,2.245,2.245,0,0,1,1.253.417l.23-.355.23-.355a2.538,2.538,0,0,0-.75-.376,3.254,3.254,0,0,0-.918-.146,1.992,1.992,0,0,0-1.378.46,1.6,1.6,0,0,0-.5,1.19,1.266,1.266,0,0,0,.522,1.107,3.732,3.732,0,0,0,1.169.5,4.073,4.073,0,0,1,.877.334.614.614,0,0,1,.334.564.713.713,0,0,1-.273.584,1.2,1.2,0,0,1-.794.23,2.432,2.432,0,0,1-.794-.146,4.833,4.833,0,0,1-.731-.376l-.23.355-.23.355a3.49,3.49,0,0,0,.835.46,3.016,3.016,0,0,0,1.128.209Zm-12.172,0a3.006,3.006,0,0,0,2.088-.856,2.931,2.931,0,1,0-2.088.857Zm-8.54-2.9a2.918,2.918,0,0,0,.856,2.067,3.018,3.018,0,0,0,2.109.856,3.218,3.218,0,0,0,1.044-.167,2.734,2.734,0,0,0,.835-.46l-.23-.355-.23-.355a2.374,2.374,0,0,1-.668.376,2.3,2.3,0,0,1-.772.125,1.924,1.924,0,0,1-1.4-.605,2.155,2.155,0,0,1-.584-1.482,2.064,2.064,0,0,1,.584-1.482,1.924,1.924,0,0,1,1.4-.605,2.22,2.22,0,0,1,.772.125,2.372,2.372,0,0,1,.668.376l.23-.355.23-.355a2.949,2.949,0,0,0-.835-.46,3.219,3.219,0,0,0-1.044-.167,2.923,2.923,0,0,0-2.964,2.923Zm40.314,2.777h-.9v-5.574h.9Zm2.839,0H406.9v-5.574H408l1.3,2.109,1.3,2.109v-4.217h.856v5.574h-1.044l-1.336-2.15-1.336-2.15v4.3Zm-5.094-4.739h-1.754v4.739h-.92v-4.739h-1.732v-.835h4.405v.835Zm-6.994,3.907h2.756v.835h-3.654v-5.574h.9v4.739Zm-17.454.835h-.856v-5.574h1.107l1.3,2.109,1.3,2.109v-4.217h.856v5.574h-1.044l-1.336-2.15-1.336-2.15v4.3Zm-5.073-.71a1.936,1.936,0,0,1-1.42-.605,2.142,2.142,0,0,1-.584-1.461,2.066,2.066,0,0,1,.584-1.461,1.972,1.972,0,0,1,1.42-.605,2.019,2.019,0,0,1,1.441.605,2.142,2.142,0,0,1,.584,1.461,2.066,2.066,0,0,1-.584,1.461A2.019,2.019,0,0,1,373.138,274.98Zm16.348-8.96a3.005,3.005,0,0,0,2.088-.856,2.906,2.906,0,0,0,.856-2.045,2.994,2.994,0,0,0-.856-2.067,2.923,2.923,0,1,0-4.155,4.113,2.834,2.834,0,0,0,2.067.856Zm-10.731,0a2.032,2.032,0,0,0,1.441-.477,1.624,1.624,0,0,0,.522-1.211,1.3,1.3,0,0,0-.522-1.107,4.307,4.307,0,0,0-1.169-.522,3.209,3.209,0,0,1-.877-.334.614.614,0,0,1-.334-.564.771.771,0,0,1,.23-.564,1.055,1.055,0,0,1,.731-.23,2.245,2.245,0,0,1,1.253.417l.23-.355.23-.355a2.539,2.539,0,0,0-.75-.376,3.255,3.255,0,0,0-.918-.146,1.992,1.992,0,0,0-1.378.46,1.6,1.6,0,0,0-.5,1.19,1.266,1.266,0,0,0,.522,1.107,3.733,3.733,0,0,0,1.169.5,4.07,4.07,0,0,1,.877.334.614.614,0,0,1,.334.564.712.712,0,0,1-.273.584,1.2,1.2,0,0,1-.794.23,2.433,2.433,0,0,1-.794-.146,4.829,4.829,0,0,1-.731-.376l-.23.355-.23.355a3.491,3.491,0,0,0,.835.46,2.653,2.653,0,0,0,1.128.209Zm-5.783,0a3.005,3.005,0,0,0,2.088-.856,2.906,2.906,0,0,0,.856-2.045,2.993,2.993,0,0,0-.856-2.067,2.923,2.923,0,1,0-4.155,4.113,2.833,2.833,0,0,0,2.067.856Zm21.838-5.679,1.3,2.109,1.3,2.109v-4.217h.856v5.574h-1.046l-1.336-2.15-1.336-2.15v4.322H393.7v-5.574l1.107-.021Zm-8.81,0v.835h-1.754v4.739h-.918v-4.739h-1.733v-.835Zm-18.915,0a1.945,1.945,0,0,1,1.232.417,1.4,1.4,0,0,1,.5,1.065,1.3,1.3,0,0,1-.167.647,1.269,1.269,0,0,1-.477.46,1.511,1.511,0,0,1,.647.545,1.47,1.47,0,0,1,.23.794,1.545,1.545,0,0,1-.5,1.148,1.827,1.827,0,0,1-1.274.46H364.9V260.3l2.192.042Zm22.4,4.841a1.936,1.936,0,0,1-1.42-.605,2.142,2.142,0,0,1-.584-1.461,2.1,2.1,0,0,1,.584-1.461,1.972,1.972,0,0,1,1.42-.605,2.02,2.02,0,0,1,1.441.605,2.142,2.142,0,0,1,.584,1.461,2.066,2.066,0,0,1-.584,1.461A1.938,1.938,0,0,1,389.486,265.182Zm-16.514,0a1.936,1.936,0,0,1-1.42-.605,2.142,2.142,0,0,1-.584-1.461,2.1,2.1,0,0,1,.584-1.461,1.972,1.972,0,0,1,1.42-.605,2.02,2.02,0,0,1,1.441.605,2.142,2.142,0,0,1,.584,1.461,2.066,2.066,0,0,1-.584,1.461,1.938,1.938,0,0,1-1.441.605Zm-5.741-.083a.85.85,0,0,0,.627-.25.837.837,0,0,0,.25-.584.758.758,0,0,0-.25-.584.925.925,0,0,0-.627-.23H365.79v1.628l1.441.021Zm-.146-2.4a.818.818,0,0,0,.584-.23.807.807,0,0,0,0-1.128.818.818,0,0,0-.584-.23h-1.3v1.568l1.3.021Z" transform="translate(-293.074 -259.753)" fill="#fff"></path>
    </g>
  </g>
</svg>
