<svg xmlns="http://www.w3.org/2000/svg" width="197.462" height="41.822" viewBox="0 0 197.462 41.822">
  <g id="Group_105222" data-name="Group 105222" transform="translate(-187 -13144.249)">
    <g id="Group_105221" data-name="Group 105221" transform="translate(233.229 13151.713)">
      <g id="Group_1828" data-name="Group 1828" transform="translate(0 0)">
        <path id="Path_1203" data-name="Path 1203" d="M2101.2-175.757v-1.587a6.226,6.226,0,0,1-4.763,1.953,4.9,4.9,0,0,1-5.129-4.884c0-3.389,2.717-4.793,5.129-4.793a6.1,6.1,0,0,1,4.763,1.892v-2.2c0-1.71-1.4-2.748-3.45-2.748a6.04,6.04,0,0,0-4.366,1.862l-1.313-2.228a8.772,8.772,0,0,1,6.2-2.382c3.266,0,6.136,1.373,6.136,5.343v9.769Zm0-3.358v-2.229a4.318,4.318,0,0,0-3.511-1.527c-1.8,0-3.145,1.039-3.145,2.656,0,1.588,1.343,2.626,3.145,2.626A4.317,4.317,0,0,0,2101.2-179.116Z" transform="translate(-2091.309 196.274)" fill="#fff"/>
        <path id="Path_1204" data-name="Path 1204" d="M2119.474-177.8v7.663h-3.206V-190.5h3.206v2.015a5.884,5.884,0,0,1,4.732-2.382c3.815,0,6.534,2.87,6.534,7.724s-2.719,7.755-6.534,7.755A5.789,5.789,0,0,1,2119.474-177.8Zm7.938-5.343c0-2.839-1.618-4.884-4.152-4.884a4.785,4.785,0,0,0-3.786,1.984v5.831a4.872,4.872,0,0,0,3.786,1.985C2125.793-178.23,2127.412-180.276,2127.412-183.146Z" transform="translate(-2099.627 196.274)" fill="#fff"/>
        <path id="Path_1205" data-name="Path 1205" d="M2145.029-177.8v7.663h-3.205V-190.5h3.205v2.015a5.884,5.884,0,0,1,4.733-2.382c3.815,0,6.533,2.87,6.533,7.724s-2.718,7.755-6.533,7.755A5.791,5.791,0,0,1,2145.029-177.8Zm7.938-5.343c0-2.839-1.619-4.884-4.152-4.884a4.786,4.786,0,0,0-3.786,1.984v5.831a4.872,4.872,0,0,0,3.786,1.985C2151.348-178.23,2152.967-180.276,2152.967-183.146Z" transform="translate(-2108.144 196.274)" fill="#fff"/>
        <path id="Path_1206" data-name="Path 1206" d="M2166.782-196.991a2,2,0,0,1,1.985-1.984,1.981,1.981,0,0,1,1.985,1.984,1.981,1.981,0,0,1-1.985,1.985A2,2,0,0,1,2166.782-196.991Zm.4,18.532V-193.2h3.206v14.746Z" transform="translate(-2116.462 198.975)" fill="#fff"/>
        <path id="Path_1207" data-name="Path 1207" d="M2187.452-175.757v-9.22c0-2.29-1.16-3.053-2.961-3.053a4.853,4.853,0,0,0-3.786,1.984v10.289H2177.5V-190.5h3.206v2.015a6.976,6.976,0,0,1,5.19-2.382c3.175,0,4.763,1.709,4.763,4.732v10.38Z" transform="translate(-2120.033 196.274)" fill="#fff"/>
        <path id="Path_1208" data-name="Path 1208" d="M2205.358-175.574l-6.014-14.746h3.42l4.305,11.052,4.3-11.052h3.45l-6.015,14.746Z" transform="translate(-2127.314 196.09)" fill="#fff"/>
        <path id="Path_1209" data-name="Path 1209" d="M2223.3-183.146a7.453,7.453,0,0,1,7.479-7.724c4.427,0,7.266,3.389,7.266,8.029v.763h-11.388a4.466,4.466,0,0,0,4.7,4.06,6.239,6.239,0,0,0,4.182-1.618l1.466,2.107a8.6,8.6,0,0,1-5.984,2.137A7.413,7.413,0,0,1,2223.3-183.146Zm7.479-5.1a4.068,4.068,0,0,0-4.152,3.908h8.3A3.944,3.944,0,0,0,2230.775-188.244Z" transform="translate(-2135.297 196.274)" fill="#fff"/>
        <path id="Path_1210" data-name="Path 1210" d="M2259.215-175.757v-9.22c0-2.29-1.16-3.053-2.961-3.053a4.855,4.855,0,0,0-3.786,1.984v10.289h-3.2V-190.5h3.2v2.015a6.979,6.979,0,0,1,5.19-2.382c3.176,0,4.763,1.709,4.763,4.732v10.38Z" transform="translate(-2143.951 196.274)" fill="#fff"/>
        <path id="Path_1211" data-name="Path 1211" d="M2274.053-181.008v-8.517h-2.442v-2.809h2.442v-4.03h3.207v4.03h2.991v2.809h-2.991v7.724c0,1.007.488,1.74,1.4,1.74a2.073,2.073,0,0,0,1.436-.519l.762,2.412a4.23,4.23,0,0,1-3.022.946C2275.366-177.223,2274.053-178.566,2274.053-181.008Z" transform="translate(-2151.399 198.105)" fill="#fff"/>
        <path id="Path_1212" data-name="Path 1212" d="M2287.411-196.991a2,2,0,0,1,1.985-1.984,1.981,1.981,0,0,1,1.984,1.984,1.981,1.981,0,0,1-1.984,1.985A2,2,0,0,1,2287.411-196.991Zm.4,18.532V-193.2h3.2v14.746Z" transform="translate(-2156.664 198.975)" fill="#fff"/>
        <path id="Path_1213" data-name="Path 1213" d="M2300.937-175.574l-6.014-14.746h3.42l4.3,11.052,4.3-11.052h3.45l-6.015,14.746Z" transform="translate(-2159.167 196.09)" fill="#fff"/>
      </g>
    </g>
    <path id="Path_77911" data-name="Path 77911" d="M2064.763-168.177a2.839,2.839,0,0,1-2.531-1.546l-15.924-31.131L2034.4-176.837l11.052-4.8a2.841,2.841,0,0,1,3.737,1.468,2.834,2.834,0,0,1-1.47,3.732l-18.181,7.9a2.844,2.844,0,0,1-3.191-.645,2.834,2.834,0,0,1-.487-3.214l17.87-36.027a2.839,2.839,0,0,1,2.528-1.577h.017a2.842,2.842,0,0,1,2.53,1.546l18.491,36.151a2.835,2.835,0,0,1-1.238,3.815,2.829,2.829,0,0,1-1.289.311" transform="translate(-1838.56 13354.249)" fill="#fff"/>
  </g>
</svg>
