<?xml version="1.0" encoding="UTF-8"?><svg id="Layer_2" xmlns="http://www.w3.org/2000/svg" viewBox="0 0 1920 1080"><defs><style>.cls-1{fill-rule:evenodd;stroke-width:0px;}</style></defs><g id="Layer_2-2"><g id="Layer_1-2"><path class="cls-1" d="M1014.28,558.12c-1.31-1.04-3.09-1.56-5.34-1.56h-14.17v11.81h14.17c2.24,0,4.02-.52,5.34-1.56,1.31-1.04,1.97-2.49,1.97-4.35s-.66-3.31-1.97-4.35h0Z"/><path class="cls-1" d="M823.46,503.93c1.74,0,3.18-.5,4.32-1.49s1.71-2.36,1.71-4.1c0-1.4-.5-2.55-1.49-3.46-1-.91-2.4-1.37-4.22-1.37h-16.4l1.73,10.42h14.35Z"/><path class="cls-1" d="M991.76,501.2c-1.29-2.12-3.12-3.74-5.49-4.86s-5.21-1.68-8.51-1.68-6.08.56-8.45,1.68-4.21,2.74-5.53,4.86c-1.31,2.12-1.97,4.64-1.97,7.56s.66,5.44,1.97,7.56,3.15,3.74,5.53,4.86c2.37,1.12,5.19,1.68,8.45,1.68s6.14-.56,8.51-1.68,4.2-2.74,5.49-4.86,1.94-4.64,1.94-7.56-.65-5.44-1.94-7.56Z"/><path class="cls-1" d="M956.09,558.82c-2.37-1.12-5.21-1.68-8.51-1.68s-6.08.56-8.45,1.68-4.21,2.74-5.53,4.86c-1.31,2.12-1.97,4.64-1.97,7.56s.66,5.44,1.97,7.56,3.15,3.74,5.53,4.86c2.37,1.12,5.19,1.68,8.45,1.68s6.14-.56,8.51-1.68,4.2-2.74,5.49-4.86,1.94-4.64,1.94-7.56-.65-5.44-1.94-7.56-3.12-3.74-5.49-4.86Z"/><path class="cls-1" d="M830.73,513.94c-1.29-1.08-3.21-1.62-5.75-1.62h-15.84l-1.83,11.69h18.74c2.07,0,3.69-.5,4.86-1.49,1.16-.99,1.75-2.4,1.75-4.22s-.65-3.27-1.94-4.35h.01Z"/><path class="cls-1" d="M0,0v1080h1920V0H0ZM1012.95,484.94h15.56l24.71,34.1v-34.1h11.62v47.64h-15.12l-25.16-34.79v34.79h-11.62v-47.64h.01ZM850.14,484.94h43.26v9.85h-30.33l1.54,9.53h27.08v8.89h-27.08l-1.54,9.53h30.65v9.85h-43.58l3.68-23.82-3.68-23.82h0ZM794.62,532.58l3.68-24.46-3.68-23.19h33.1c4.4,0,7.82,1.03,10.26,3.08s3.65,4.88,3.65,8.48c0,1.99-.47,3.9-1.4,5.72-.93,1.82-2.41,3.36-4.45,4.6-.42.26-.9.49-1.38.71,1.21.27,2.33.6,3.32,1.04,2.39,1.06,4.17,2.51,5.34,4.35,1.16,1.84,1.75,3.95,1.75,6.32,0,2.58-.59,4.88-1.78,6.89s-2.95,3.59-5.3,4.73c-2.35,1.14-5.28,1.71-8.8,1.71h-34.3v.02ZM902.99,595.06h-15.31l-11.91-34.19-11.85,34.19h-15.37l-14.93-47.64h12.7l10.73,36.56,12.39-36.56h12.7l12.41,36.53,10.71-36.53h12.64l-14.93,47.64h.02ZM895.81,484.94h13.28l15.02,19.1,15.02-19.1h13.28l-22.23,28.25v19.39h-12.01v-19.18l-22.36-28.46h0ZM972.13,584.26c-2.35,3.73-5.63,6.63-9.85,8.7-4.21,2.08-9.12,3.11-14.71,3.11s-10.49-1.04-14.71-3.11c-4.21-2.07-7.49-4.98-9.81-8.7-2.33-3.73-3.49-8.07-3.49-13.02s1.16-9.29,3.49-13.02c2.33-3.73,5.6-6.63,9.81-8.7s9.12-3.11,14.71-3.11,10.49,1.04,14.71,3.11c4.21,2.08,7.5,4.98,9.85,8.7,2.35,3.73,3.53,8.07,3.53,13.02s-1.18,9.3-3.53,13.02ZM963.05,530.49c-4.21-2.07-7.48-4.98-9.81-8.7-2.33-3.73-3.49-8.07-3.49-13.02s1.16-9.29,3.49-13.02c2.33-3.73,5.6-6.63,9.81-8.7s9.12-3.11,14.71-3.11,10.49,1.04,14.71,3.11c4.21,2.08,7.5,4.98,9.85,8.7,2.35,3.73,3.53,8.07,3.53,13.02s-1.18,9.3-3.53,13.02c-2.35,3.73-5.63,6.63-9.85,8.7-4.21,2.08-9.12,3.11-14.71,3.11s-10.49-1.04-14.71-3.11ZM1015.93,595.06l-13.54-17.6h-7.62v17.6h-12.01v-47.64h27.76c3.56,0,6.67.64,9.34,1.91,2.67,1.27,4.74,3.03,6.23,5.27,1.48,2.24,2.22,4.87,2.22,7.88s-.74,5.57-2.22,7.81c-1.48,2.25-3.56,4-6.23,5.27-1.31.62-2.73,1.09-4.25,1.41l14.23,18.09h-13.91ZM1072.79,595.06l-10.97-18.27-14.88,18.27h-10.8v-47.64h11.94v31.49l24.96-31.49h12.7l-16.36,20.08,17,27.56h-13.59,0ZM1121.86,521.24c-2.35,3.58-5.62,6.36-9.81,8.35-4.19,1.99-9.08,2.99-14.67,2.99h-23.25v-47.64h23.25c5.59,0,10.48,1,14.67,2.99,4.19,1.99,7.46,4.76,9.81,8.32,2.35,3.56,3.53,7.73,3.53,12.51s-1.17,8.9-3.53,12.48h0Z"/><path class="cls-1" d="M1106.2,497.2c-2.25-1.1-4.89-1.65-7.94-1.65h-12.2v26.43h12.2c3.05,0,5.7-.55,7.94-1.65,2.24-1.1,3.98-2.64,5.21-4.61s1.84-4.29,1.84-6.96-.61-5.04-1.84-6.99c-1.23-1.95-2.96-3.47-5.21-4.57h0Z"/></g></g></svg>