<svg width="15" height="15" viewBox="0 0 15 15" fill="none" xmlns="http://www.w3.org/2000/svg">
<path fill-rule="evenodd" clip-rule="evenodd" d="M14.1964 8.03571C14.64 8.03571 15 7.67571 15 7.23214C15 6.78857 14.64 6.42857 14.1964 6.42857H13.8359C13.4834 4.33661 12.12 2.59125 10.2648 1.70464L10.1009 3.38679C10.0805 3.59464 9.90536 3.75 9.70125 3.75C9.68839 3.75 9.67554 3.74946 9.66214 3.74732C9.44143 3.72589 9.27964 3.52982 9.30107 3.30911L9.58018 0.440893C9.60321 0.201964 9.41518 0 9.18 0H5.81946C5.58429 0 5.39625 0.201964 5.41982 0.441428L5.69893 3.30964C5.72036 3.53036 5.55857 3.72643 5.33786 3.74786C5.11286 3.77357 4.92054 3.6075 4.89911 3.38679L4.73518 1.70464C2.88 2.59179 1.51661 4.33714 1.16411 6.42857H0.803571C0.36 6.42857 0 6.78857 0 7.23214C0 7.67571 0.36 8.03571 0.803571 8.03571H14.1964ZM13.9286 10.1786H14.7321C14.88 10.1786 15 10.2986 15 10.4464V11.5179C15 11.6657 14.88 11.7857 14.7321 11.7857H13.9286V12.8571C13.9286 12.9996 13.8723 13.1357 13.7716 13.2359L12.7002 14.3073C12.6 14.408 12.4634 14.4643 12.3214 14.4643H9.10714C8.92821 14.4643 8.76107 14.3748 8.66143 14.2259C8.26393 13.6302 7.74107 13.0275 7.5 12.878C7.25893 13.028 6.73607 13.6307 6.33857 14.2259C6.23893 14.3748 6.07179 14.4643 5.89286 14.4643H2.67857C2.53661 14.4643 2.4 14.408 2.29982 14.3073L1.22839 13.2359C1.12768 13.1357 1.07143 12.9996 1.07143 12.8571V11.7857H0.267857C0.12 11.7857 0 11.6657 0 11.5179V10.4464C0 10.2986 0.12 10.1786 0.267857 10.1786H1.07143C1.07143 9.58768 1.55196 9.10714 2.14286 9.10714H12.8571C13.448 9.10714 13.9286 9.58768 13.9286 10.1786ZM12.0996 13.3929L12.8571 12.6354V10.1786H2.14232L2.14286 12.6354L2.90036 13.3929H5.61C6.15857 12.6113 6.88339 11.7857 7.5 11.7857C8.11661 11.7857 8.84143 12.6113 9.39 13.3929H12.0996Z" fill="white"/>
</svg>
