<svg xmlns="http://www.w3.org/2000/svg" width="10.887" height="12.481" viewBox="0 0 10.887 12.481">
  <g id="e-scooter" transform="translate(0.002)">
    <path id="Path_1457" data-name="Path 1457" d="M1094.973,623.9h-.795l-1.012-7.715a.506.506,0,0,0-.506-.432h-2.34a.494.494,0,1,0,0,.988h1.891l.939,7.159h-8.041a.494.494,0,1,0,0,.988h9.864a.494.494,0,1,0,0-.988Z" transform="translate(-1084.599 -615.752)" fill="#fff"/>
    <path id="Path_1458" data-name="Path 1458" d="M1091.527,682.478a1.531,1.531,0,1,0,1.579,1.53A1.557,1.557,0,0,0,1091.527,682.478Zm0,2.072a.542.542,0,1,1,.559-.542A.551.551,0,0,1,1091.527,684.549Z" transform="translate(-1089.206 -673.057)" fill="#fff"/>
    <path id="Path_1459" data-name="Path 1459" d="M1132.527,682.478a1.531,1.531,0,1,0,1.579,1.53A1.557,1.557,0,0,0,1132.527,682.478Zm0,2.072a.542.542,0,1,1,.559-.542A.551.551,0,0,1,1132.527,684.549Z" transform="translate(-1124.234 -673.057)" fill="#fff"/>
  </g>
</svg>
