<svg xmlns="http://www.w3.org/2000/svg" width="15.742" height="10.436" viewBox="0 0 15.742 10.436">
  <g id="Group_1839" data-name="Group 1839" transform="translate(-6849.478 115.833)">
    <path id="Path_1498" data-name="Path 1498" d="M2475.732,634.2l-3.247,1.047-3.6-5.711,2.6-2.174,3.4.09Z" transform="translate(4381.09 -742.697)" fill="none" stroke="#fff" stroke-linecap="round" stroke-linejoin="round" stroke-width="1"/>
    <path id="Path_1499" data-name="Path 1499" d="M2537.99,675.045" transform="translate(4322.202 -783.674)" fill="none" stroke="#fff" stroke-linecap="round" stroke-linejoin="round" stroke-width="1"/>
    <path id="Path_1503" data-name="Path 1503" d="M.064.009,0,0" transform="translate(6852.279 -112.959)" fill="none" stroke="#fff" stroke-linecap="round" stroke-width="1"/>
    <line id="Line_2" data-name="Line 2" x1="0.064" y1="0.009" transform="translate(6854.122 -113.625)" fill="none" stroke="#fff" stroke-linecap="round" stroke-linejoin="round" stroke-width="1"/>
    <path id="Path_1500" data-name="Path 1500" d="M2496.19,663.542a.577.577,0,0,0,.586.157c.329-.122.335-.554.335-.554" transform="translate(4357.824 -773.447)" fill="none" stroke="#fff" stroke-linecap="round" stroke-linejoin="round" stroke-width="1"/>
    <path id="Path_1501" data-name="Path 1501" d="M2528.807,645.945l-3.338-.747.128-6.657,3.412-.536,2.837,1.791Z" transform="translate(4332.873 -751.842)" fill="none" stroke="#fff" stroke-linecap="round" stroke-linejoin="round" stroke-width="1"/>
    <line id="Line_3" data-name="Line 3" x1="0.049" y1="0.04" transform="translate(6860.31 -111.971)" fill="none" stroke="#fff" stroke-linecap="round" stroke-linejoin="round" stroke-width="1"/>
    <line id="Line_4" data-name="Line 4" x1="0.049" y1="0.04" transform="translate(6862.244 -111.608)" fill="none" stroke="#fff" stroke-linecap="round" stroke-linejoin="round" stroke-width="1"/>
    <path id="Path_1502" data-name="Path 1502" d="M2538.129,676.891a.538.538,0,0,0-.394-.442.673.673,0,0,0-.6.282" transform="translate(4322.933 -784.875)" fill="none" stroke="#fff" stroke-linecap="round" stroke-linejoin="round" stroke-width="1"/>
  </g>
</svg>
