<svg xmlns="http://www.w3.org/2000/svg" width="10.388" height="13.733" viewBox="0 0 10.388 13.733">
  <g id="Events" transform="translate(-0.04 0)">
    <path id="Path_1488" data-name="Path 1488" d="M2190.052,619.626h-.423a1.985,1.985,0,0,0,.3-1.049V614.9a2,2,0,0,0-1.993-2h-1.854a2,2,0,0,0-1.993,2v3.681a1.983,1.983,0,0,0,.3,1.049h-.5a.49.49,0,0,0-.49.49v4.108a.49.49,0,0,0,.49.49h6.162a.49.49,0,0,0,.49-.49v-4.108a.49.49,0,0,0-.491-.49Zm-3.971-5.746h1.854a1.016,1.016,0,0,1,1.014,1.016v3.681a1.016,1.016,0,0,1-1.014,1.016h-1.854a1.017,1.017,0,0,1-1.015-1.016V617.6h1.981a.49.49,0,0,0,0-.98h-1.981v-.84h1.981a.49.49,0,0,0,0-.98h-1.976A1.016,1.016,0,0,1,2186.081,613.88Zm3.481,9.854h-5.183v-3.128h5.183Z" transform="translate(-2181.714 -610.982)" fill="#fff"/>
    <path id="Path_1489" data-name="Path 1489" d="M2172.12,640.2h-.062a.49.49,0,0,0,0,.98h.062a.49.49,0,0,0,0-.98Z" transform="translate(-2171.54 -634.459)" fill="#fff"/>
    <path id="Path_1490" data-name="Path 1490" d="M2239.12,619.2h-.062a.49.49,0,0,0,0,.98h.062a.49.49,0,0,0,0-.98Z" transform="translate(-2229.17 -616.4)" fill="#fff"/>
    <path id="Path_1491" data-name="Path 1491" d="M2189.053,600.182h.062a.49.49,0,0,0,0-.98h-.062a.49.49,0,0,0,0,.98Z" transform="translate(-2186.158 -599.202)" fill="#fff"/>
  </g>
</svg>
