<svg xmlns="http://www.w3.org/2000/svg" width="11.144" height="13.547" viewBox="0 0 11.144 13.547">
  <g id="Finance" transform="translate(0.025 -0.003)">
    <path id="Path_1474" data-name="Path 1474" d="M2050.191,673.1a.55.55,0,0,0-.545.554v2.595a.546.546,0,0,0,1.091,0v-2.595A.55.55,0,0,0,2050.191,673.1Z" transform="translate(-2044.662 -663.26)" fill="#fff"/>
    <path id="Path_1475" data-name="Path 1475" d="M2065.481,665.744a.55.55,0,0,0-.545.554v3.76a.545.545,0,1,0,1.091,0V666.3A.55.55,0,0,0,2065.481,665.744Z" transform="translate(-2057.569 -657.069)" fill="#fff"/>
    <path id="Path_1476" data-name="Path 1476" d="M2081.832,654.366a.55.55,0,0,0-.545.554v5.562a.545.545,0,1,0,1.091,0V654.92A.55.55,0,0,0,2081.832,654.366Z" transform="translate(-2071.37 -647.494)" fill="#fff"/>
    <path id="Path_1477" data-name="Path 1477" d="M2050.587,611.062a.538.538,0,0,0-.571.052l-2.494,1.9a.56.56,0,0,0-.109.776.54.54,0,0,0,.764.111l1.586-1.208c-.3,4.585-2.5,5.637-5.525,6.573a.556.556,0,0,0-.363.692.547.547,0,0,0,.522.393.537.537,0,0,0,.159-.024c3.465-1.074,6.333-2.475,6.333-8.77a.555.555,0,0,0-.3-.5Z" transform="translate(-2039.77 -611)" fill="#fff"/>
    <path id="Path_1478" data-name="Path 1478" d="M2019.015,638.036h1.7a.554.554,0,1,0,0-1.109h-.452v-1.216a.546.546,0,0,0-1.091,0v1.214h-.157c-.839,0-1.471.476-1.471,1.1v1.449c0,.629.632,1.1,1.471,1.1h.775a.776.776,0,0,1,.38.085v1.142a.773.773,0,0,1-.38.085h-1.7a.554.554,0,1,0,0,1.109h1.082v1.334a.545.545,0,1,0,1.091,0v-1.366c0-.007,0-.014,0-.021a1.153,1.153,0,0,0,1-1.05v-1.322c0-.629-.632-1.1-1.471-1.1h-.775a.773.773,0,0,1-.38-.085v-1.269A.776.776,0,0,1,2019.015,638.036Z" transform="translate(-2017.561 -631.332)" fill="#fff"/>
  </g>
</svg>
