<svg xmlns="http://www.w3.org/2000/svg" xmlns:xlink="http://www.w3.org/1999/xlink" width="71.913" height="78.154" viewBox="0 0 71.913 78.154">
  <defs>
    <linearGradient id="linear-gradient" x1="0.5" y1="0.093" x2="0.5" y2="1.006" gradientUnits="objectBoundingBox">
      <stop offset="0" stop-color="#fcee1f"/>
      <stop offset="1" stop-color="#f15b2a"/>
    </linearGradient>
  </defs>
  <path id="Path_78727" data-name="Path 78727" d="M91.174,34.6a32.217,32.217,0,0,0-.763-4.508A30.951,30.951,0,0,0,88.4,24.688a30.1,30.1,0,0,0-3.745-5.756c-.624-.763-1.318-1.456-2.011-2.219A11.442,11.442,0,0,0,81.327,8.53a11.931,11.931,0,0,0-7.836,2.011c-.139-.069-.347-.139-.485-.208-.693-.277-1.456-.555-2.219-.832-.763-.208-1.526-.485-2.288-.624-.763-.208-1.595-.347-2.427-.485-.139,0-.277-.069-.416-.069A14.719,14.719,0,0,0,58.581,0c-6.033,3.883-7.212,9.084-7.212,9.084a.691.691,0,0,1-.069.277c-.347.069-.624.208-.971.277a10.111,10.111,0,0,0-1.318.485c-.416.208-.9.347-1.318.555-.9.416-1.734.832-2.635,1.318a28.668,28.668,0,0,0-2.427,1.526.858.858,0,0,1-.208-.139,20.15,20.15,0,0,0-15.326.624A22.265,22.265,0,0,0,31.12,29.056c-.208.555-.347,1.04-.555,1.595a34.578,34.578,0,0,0-1.318,6.033c-.069.277-.069.624-.139.9A19.987,19.987,0,0,0,19.4,48.89c6.241,7.212,13.592,7.628,13.592,7.628h0a31.262,31.262,0,0,0,3.19,4.716c.485.624,1.04,1.179,1.595,1.8a16.882,16.882,0,0,0,.347,12A19.448,19.448,0,0,0,50.676,71.22l2.08.624a30.243,30.243,0,0,0,6.519.971h2.843c3.259,4.716,9.084,5.34,9.084,5.34,4.091-4.369,4.369-8.6,4.369-9.57h0v-.208h0v-.208c.832-.624,1.664-1.248,2.5-1.942a26.825,26.825,0,0,0,4.3-4.993c.139-.139.208-.347.347-.485a11.313,11.313,0,0,0,7.906-2.913,11.926,11.926,0,0,0-4.091-7.628h0l-.069-.069-.069-.069h0L86.32,50c0-.277.069-.555.069-.9a12.277,12.277,0,0,0,.069-1.595V45.492a.88.88,0,0,0-.069-.416l-.069-.416-.069-.416c-.069-.555-.208-1.04-.277-1.595a20.547,20.547,0,0,0-2.358-5.825,21.64,21.64,0,0,0-3.953-4.716,19.085,19.085,0,0,0-4.993-3.19,17.5,17.5,0,0,0-5.478-1.526,18.588,18.588,0,0,0-2.774-.139H65.03c-.485.069-.971.139-1.387.208A15.756,15.756,0,0,0,58.512,29.4a15.545,15.545,0,0,0-3.953,3.4,13.888,13.888,0,0,0-2.5,4.23,15.019,15.019,0,0,0-.971,4.508V43.2a1.527,1.527,0,0,0,.069.555,10.727,10.727,0,0,0,.416,2.15,11.867,11.867,0,0,0,1.872,3.745,11.042,11.042,0,0,0,2.774,2.635,12.221,12.221,0,0,0,3.19,1.526,8.44,8.44,0,0,0,3.121.416H63.99a3,3,0,0,0,.347-.069c.139,0,.208-.069.347-.069.208-.069.485-.139.693-.208.416-.139.832-.347,1.248-.485a6.851,6.851,0,0,0,1.04-.624c.069-.069.208-.139.277-.208a.781.781,0,0,0,.139-1.11.969.969,0,0,0-1.04-.208c-.069.069-.139.069-.277.139a4.815,4.815,0,0,1-.9.347c-.347.069-.693.208-1.04.277-.208,0-.347.069-.555.069H62.811a.417.417,0,0,1-.277-.069,10.122,10.122,0,0,1-2.358-.693,7.367,7.367,0,0,1-2.15-1.456,8.745,8.745,0,0,1-1.734-2.15,7.441,7.441,0,0,1-.9-2.635,5.14,5.14,0,0,1-.069-1.456V43.2h0v-.347a2.949,2.949,0,0,1,.139-.763,10.148,10.148,0,0,1,2.982-5.617,6.214,6.214,0,0,1,1.318-1.04,7.8,7.8,0,0,1,1.456-.832,10.78,10.78,0,0,1,1.595-.555,6.962,6.962,0,0,1,1.664-.277c.277,0,.555-.069.832-.069h.832a14.033,14.033,0,0,1,1.8.277A13.214,13.214,0,0,1,71.41,35.3a12.62,12.62,0,0,1,6.38,9.084c.069.347.069.624.139.971v1.8c0,.347-.069.693-.069,1.04-.069.347-.069.693-.139,1.04l-.208,1.04c-.139.693-.416,1.318-.624,2.011a14.557,14.557,0,0,1-2.011,3.675,16.533,16.533,0,0,1-10.541,6.588,10.584,10.584,0,0,1-2.08.208h-1.11a5.965,5.965,0,0,1-1.11-.069,23.866,23.866,0,0,1-4.438-.832,21.717,21.717,0,0,1-4.161-1.664,22.654,22.654,0,0,1-6.865-5.686,26.6,26.6,0,0,1-2.427-3.745,22.716,22.716,0,0,1-1.595-4.091,17.958,17.958,0,0,1-.693-4.3V40.915h0v-.693A12.6,12.6,0,0,1,40.065,38c.069-.763.208-1.456.347-2.219s.347-1.456.555-2.219A26.976,26.976,0,0,1,42.493,29.4a24.6,24.6,0,0,1,4.716-6.865,13.867,13.867,0,0,1,1.526-1.318,7.849,7.849,0,0,1,1.248-.971,13.958,13.958,0,0,1,1.734-.971c.277-.139.555-.277.9-.416a159099.143,159099.143,0,0,1,.971-.416c.624-.277,1.248-.485,1.872-.693.139-.069.347-.069.485-.139s.347-.069.485-.139A5.108,5.108,0,0,0,57.4,17.2c.139-.069.347-.069.485-.139.139,0,.347-.069.485-.069s.347-.069.485-.069l.277-.069.277-.069c.139,0,.347-.069.485-.069.208,0,.347-.069.555-.069.139,0,.416-.069.555-.069a.625.625,0,0,0,.347-.069h.485a1.527,1.527,0,0,0,.555-.069h2.843a31.343,31.343,0,0,1,3.675.416,23.519,23.519,0,0,1,6.657,2.219,25.135,25.135,0,0,1,5.409,3.537c.069.069.208.139.277.277.069.069.208.139.277.277.208.139.347.347.555.485s.347.347.555.485c.139.208.347.347.485.555A25.908,25.908,0,0,1,85,26.837a27.291,27.291,0,0,1,2.7,4.3c.069.069.069.139.139.277.069.069.069.139.139.277a1.738,1.738,0,0,0,.277.485c.069.139.139.347.208.485s.139.347.208.485c.277.624.485,1.248.693,1.872.347.971.555,1.8.763,2.5a.666.666,0,0,0,.624.485.566.566,0,0,0,.555-.624C91.244,36.546,91.244,35.644,91.174,34.6Z" transform="translate(-19.4)" fill="url(#linear-gradient)"/>
</svg>
