<svg xmlns="http://www.w3.org/2000/svg" width="12.604" height="12.863" viewBox="0 0 12.604 12.863">
  <path id="Healthcare" d="M780.514,612.227a3.407,3.407,0,0,0-3.356.073,1.247,1.247,0,0,1-2.492,0,3.406,3.406,0,0,0-3.356-.073,3.717,3.717,0,0,0-1.7,3.514c0,5.165,5.758,8.716,6,8.864a.537.537,0,0,0,.733-.172.523.523,0,0,0-.175-.724c-.055-.034-5.493-3.394-5.495-7.967a2.814,2.814,0,0,1,1.167-2.6,2.328,2.328,0,0,1,2.29.073,2.374,2.374,0,0,1,1.225,2.113.53.53,0,0,0,.533.527l.02,0c.007,0,.013,0,.021,0a.53.53,0,0,0,.533-.527,2.374,2.374,0,0,1,1.225-2.113,2.328,2.328,0,0,1,2.29-.073,2.813,2.813,0,0,1,1.167,2.6c0,2.49-1.623,4.611-2.985,5.952a.522.522,0,0,0,0,.745.538.538,0,0,0,.755,0c1.5-1.482,3.3-3.846,3.3-6.7A3.719,3.719,0,0,0,780.514,612.227Z" transform="translate(-769.609 -611.82)" fill="#fff"/>
</svg>
