<svg width="175" height="31" viewBox="0 0 175 31" fill="none" xmlns="http://www.w3.org/2000/svg">
<path d="M20.5819 30.5212C21.1231 30.5212 21.3505 30.3081 21.0525 29.9806C20.5936 28.7488 20.3856 27.4378 20.4408 26.1246V4.42997C20.3856 3.11677 20.5936 1.80579 21.0525 0.573952C21.3474 0.24648 21.1231 0.0192871 20.5819 0.0192871H0.941832C0.400674 0.0192871 0.187348 0.24648 0.47126 0.573952C0.931665 1.80539 1.1397 3.11668 1.083 4.42997V26.1105C1.13812 27.4237 0.93014 28.7347 0.47126 29.9665C0.18578 30.294 0.400674 30.5071 0.941832 30.5071H20.5819V30.5212Z" fill="white"/>
<path d="M50.1354 10.9026L57.285 1.21479C57.5705 0.929627 57.4277 0.517545 57.4277 0.346759C57.4277 0.175972 57.4277 0.0192871 57.5705 0.0192871H76.9533C77.209 0.0192871 77.0961 0.204175 76.9957 0.346759L69.0211 11.4855C68.8558 11.6818 68.7712 11.9334 68.7843 12.1896C68.7974 12.4457 68.9072 12.6874 69.0916 12.8659L80.0575 30.1796C80.172 30.3222 80.2709 30.5071 80.0152 30.5071H56.3454C56.2027 30.5071 56.2027 30.3645 56.2027 30.1796C56.2027 29.9947 56.5729 28.4294 56.2733 28.1427L50.1558 18.7823V26.0948C50.1007 27.408 50.3087 28.719 50.7676 29.9508C51.0531 30.2783 50.8382 30.4914 50.297 30.4914H31.2357C30.6945 30.4914 30.4671 30.2783 30.7651 29.9508C31.224 28.719 31.432 27.408 31.3769 26.0948V4.42997C31.432 3.11677 31.224 1.80579 30.7651 0.573952C30.4812 0.24648 30.6945 0.0192871 31.2357 0.0192871H50.2923C50.8334 0.0192871 51.0609 0.232379 50.7629 0.55985C50.304 1.79169 50.096 3.10266 50.1511 4.41587L50.1354 10.9026Z" fill="white"/>
<path d="M105.109 19.196C105.104 19.1236 105.114 19.0509 105.139 18.9829C105.165 18.9149 105.204 18.8531 105.256 18.8018C105.307 18.7505 105.369 18.7108 105.437 18.6856C105.505 18.6603 105.578 18.65 105.65 18.6554H113.179C114.453 18.5706 115.732 18.6184 116.996 18.798C117.237 19.0393 117.537 18.8826 117.537 18.4282V11.1157C117.537 10.6598 117.237 10.5046 116.996 10.7459C115.732 10.9252 114.453 10.973 113.179 10.8885H105.65C105.578 10.8931 105.506 10.8823 105.438 10.8568C105.37 10.8312 105.309 10.7915 105.257 10.7404C105.206 10.6893 105.167 10.6278 105.141 10.5601C105.115 10.4925 105.105 10.4201 105.109 10.348V8.86886C105.104 8.79649 105.114 8.72381 105.139 8.65579C105.165 8.58776 105.204 8.52599 105.256 8.47467C105.307 8.42336 105.369 8.38372 105.437 8.35846C105.505 8.3332 105.578 8.32291 105.65 8.32829H116.492C117.793 8.27329 119.091 8.48113 120.309 8.93936C120.636 9.22453 120.85 9.00987 120.85 8.46931V0.0192871H86.7223C86.1812 0.0192871 85.9679 0.290352 86.2518 0.616257C86.7106 1.83287 86.9186 3.12951 86.8635 4.4284V25.8833C86.9186 27.1822 86.7106 28.4788 86.2518 29.6954C85.9663 30.0229 86.1812 30.236 86.7223 30.236H120.847V21.2595C120.847 20.7189 120.633 20.5058 120.305 20.7894C119.088 21.2477 117.789 21.4556 116.489 21.4005H105.65C105.578 21.4051 105.506 21.3943 105.438 21.3687C105.37 21.3432 105.309 21.3035 105.257 21.2524C105.206 21.2013 105.167 21.1398 105.141 21.0721C105.115 21.0045 105.105 20.9321 105.109 20.86V19.196Z" fill="white"/>
<path d="M174.939 30.2486C174.939 30.2486 163.603 3.33169 163.446 2.8914C163.207 2.2807 163.192 1.60524 163.404 0.984549C163.689 0.2873 163.446 0.130615 162.963 0.130615H136.415C135.93 0.130615 135.689 0.2873 135.974 0.984549C136.193 1.60405 136.178 2.28222 135.932 2.8914C135.775 3.33169 125.736 30.2486 125.736 30.2486H142.049C142.433 30.2486 142.52 30.0637 142.391 29.8083C142.255 29.3744 142.275 28.9067 142.448 28.4859L143.317 25.5841C143.38 25.2792 143.56 25.0109 143.818 24.8356C144.075 24.6603 144.391 24.5916 144.698 24.644H151.876C152.184 24.5895 152.501 24.6574 152.759 24.833C153.017 25.0087 153.196 25.2782 153.258 25.5841L154.127 28.4859C154.3 28.9067 154.319 29.3744 154.184 29.8083C154.055 30.0794 154.141 30.2486 154.526 30.2486H174.948H174.939ZM146.014 18.6994C145.759 18.6853 145.729 18.4142 145.801 18.2293L147.567 14.0474C147.638 13.9189 147.682 13.8061 147.837 13.8061C147.992 13.8061 148.036 13.9346 148.109 14.0474L149.875 18.2293C149.945 18.4142 149.917 18.6696 149.661 18.6994H146.014Z" fill="white"/>
</svg>
