<svg width="146" height="48" viewBox="0 0 146 48" fill="none" xmlns="http://www.w3.org/2000/svg">
<path d="M35.7486 16.8348H18.7845V21.8597H30.8139C30.2194 28.9105 24.3467 31.9173 18.8033 31.9173C17.0257 31.9354 15.2621 31.6012 13.6147 30.934C11.9672 30.2668 10.4686 29.2798 9.20548 28.0302C7.94241 26.7806 6.93998 25.2932 6.2562 23.654C5.57243 22.0149 5.22088 20.2565 5.22192 18.4807C5.22296 16.7049 5.57657 14.947 6.26226 13.3086C6.94795 11.6703 7.95211 10.1841 9.21664 8.93593C10.4812 7.68779 11.9809 6.70255 13.6292 6.03724C15.2774 5.37194 17.0414 5.03978 18.819 5.05997C22.1986 5.05294 25.4491 6.35545 27.8869 8.6935L31.4115 5.04902C29.718 3.41305 27.7182 2.12672 25.5265 1.26368C23.3347 0.400638 20.9941 -0.0221987 18.6386 0.0193979C16.2104 0.0369904 13.8095 0.532146 11.5729 1.4766C9.33628 2.42106 7.3078 3.79635 5.60327 5.52389C3.89873 7.25143 2.55152 9.29741 1.63856 11.545C0.725607 13.7927 0.264796 16.1979 0.282408 18.6234C0.30002 21.0489 0.795719 23.4472 1.74122 25.6814C2.68671 27.9156 4.06348 29.9418 5.79292 31.6444C7.52237 33.3471 9.5706 34.6928 11.8207 35.6048C14.0708 36.5167 16.4787 36.9771 18.9068 36.9595C28.8061 36.9595 36.0514 30.186 36.0514 20.1691C36.0712 19.0495 35.966 17.9311 35.7376 16.8348H35.7486Z" fill="white"/>
<path d="M49.6493 13.1935C47.3018 13.2007 45.0089 13.9021 43.0599 15.2094C41.111 16.5166 39.5933 18.3711 38.6982 20.539C37.8031 22.7068 37.5708 25.0909 38.0305 27.3905C38.4903 29.6901 39.6215 31.8021 41.2814 33.4603C42.9414 35.1185 45.0558 36.2484 47.3579 36.7077C49.66 37.1669 52.0468 36.9348 54.217 36.0407C56.3872 35.1466 58.2438 33.6305 59.5524 31.6837C60.8611 29.7369 61.5634 27.4466 61.5705 25.1016C61.6097 23.5271 61.3281 21.9611 60.7428 20.4987C60.1576 19.0362 59.2809 17.7079 58.1661 16.5942C57.0512 15.4806 55.7213 14.6049 54.2573 14.0203C52.7932 13.4357 51.2255 13.1544 49.6493 13.1935ZM49.7184 17.8581C51.2996 17.846 52.8365 18.3799 54.069 19.3694C55.3016 20.359 56.1541 21.7434 56.4823 23.2886C56.8106 24.8337 56.5944 26.4448 55.8704 27.849C55.1464 29.2533 53.9591 30.3647 52.5092 30.9951C51.0593 31.6256 49.4359 31.7364 47.9136 31.3088C46.3914 30.8812 45.0637 29.9415 44.1552 28.6486C43.2467 27.3558 42.8132 25.7891 42.928 24.2137C43.0428 22.6383 43.6989 21.1509 44.7852 20.0031C45.4193 19.3307 46.1835 18.7938 47.0315 18.4251C47.8795 18.0564 48.7935 17.8635 49.7184 17.8581Z" fill="white"/>
<path d="M75.628 13.1933C73.2805 13.2005 70.9876 13.9019 69.0386 15.2092C67.0896 16.5164 65.5719 18.3709 64.6769 20.5387C63.7818 22.7066 63.5495 25.0907 64.0092 27.3903C64.4689 29.6899 65.6001 31.8019 67.2601 33.4601C68.9201 35.1183 71.0345 36.2482 73.3366 36.7075C75.6387 37.1667 78.0254 36.9346 80.1956 36.0405C82.3659 35.1464 84.2224 33.6303 85.5311 31.6835C86.8398 29.7367 87.542 27.4464 87.5491 25.1014C87.5885 23.5269 87.3071 21.9608 86.722 20.4982C86.1368 19.0357 85.2601 17.7072 84.1452 16.5935C83.0303 15.4798 81.7004 14.6041 80.2362 14.0196C78.7721 13.4351 77.2043 13.154 75.628 13.1933ZM75.697 17.8579C77.2782 17.8458 78.8152 18.3796 80.0477 19.3692C81.2802 20.3588 82.1327 21.7432 82.461 23.2884C82.7892 24.8335 82.5731 26.4445 81.8491 27.8488C81.1251 29.2531 79.9377 30.3645 78.4879 30.9949C77.038 31.6254 75.4145 31.7362 73.8923 31.3086C72.37 30.881 71.0423 29.9413 70.1338 28.6484C69.2254 27.3556 68.7919 25.7889 68.9067 24.2135C69.0215 22.6381 69.6775 21.1507 70.7638 20.0029C71.398 19.3304 72.1622 18.7936 73.0101 18.4249C73.8581 18.0562 74.7722 17.8633 75.697 17.8579Z" fill="white"/>
<path d="M101.116 13.206C98.0566 13.3316 95.1636 14.6303 93.0384 16.8319C90.9132 19.0336 89.7195 21.9688 89.7053 25.0272C89.6912 28.0856 90.8578 31.0317 92.9625 33.2529C95.0672 35.4741 97.948 36.7994 101.006 36.9532C102.243 37.0208 103.479 36.7947 104.612 36.2933C105.745 35.7919 106.742 35.0295 107.523 34.0686V36.4095C107.523 40.5052 105.034 42.9574 101.276 42.9574C99.9537 42.9435 98.6664 42.5326 97.5812 41.7781C96.4961 41.0236 95.6633 39.9605 95.1912 38.7269L90.6236 40.6337C91.5064 42.7295 92.9953 44.5144 94.8997 45.7599C96.8041 47.0054 99.0373 47.6548 101.313 47.625C107.666 47.625 112.507 43.6295 112.507 35.2469V13.9189H107.523V15.9261C106.712 15.0409 105.72 14.3396 104.614 13.8696C103.509 13.3996 102.315 13.1717 101.114 13.2013L101.116 13.206ZM101.578 17.8596C104.716 17.8596 107.926 20.531 107.926 25.0937C107.926 29.7316 104.717 32.2871 101.508 32.2871C100.601 32.2649 99.7079 32.0606 98.8819 31.686C98.0558 31.3115 97.3138 30.7746 96.7001 30.1073C96.0864 29.44 95.6135 28.656 95.3098 27.8021C95.0061 26.9483 94.8778 26.0421 94.9324 25.1376C94.8734 24.2201 95.0002 23.3001 95.3051 22.4327C95.61 21.5652 96.0868 20.768 96.7069 20.0887C97.3271 19.4094 98.078 18.8619 98.9147 18.4789C99.7514 18.0959 100.658 17.8853 101.578 17.8596Z" fill="white"/>
<path d="M134.663 13.1777C128.633 13.1777 123.576 17.9675 123.576 25.034C123.518 26.5915 123.778 28.1446 124.34 29.5985C124.902 31.0524 125.755 32.3768 126.846 33.4909C127.937 34.605 129.244 35.4856 130.687 36.0789C132.13 36.6723 133.678 36.9659 135.238 36.9421C137.197 36.9462 139.127 36.4739 140.861 35.5659C142.596 34.6579 144.083 33.3416 145.194 31.7308L141.086 28.9997C140.49 30.009 139.638 30.843 138.615 31.417C137.593 31.991 136.436 32.2847 135.264 32.2682C134.043 32.3176 132.835 32.0008 131.796 31.3585C130.758 30.7162 129.935 29.7779 129.435 28.6644L145.371 22.0586L144.545 20.1235C143.785 18.1086 142.436 16.3682 140.674 15.1278C138.912 13.8874 136.818 13.2042 134.663 13.1667V13.1777ZM134.871 17.7435C135.769 17.7067 136.658 17.9255 137.436 18.3744C138.213 18.8233 138.847 19.4837 139.263 20.2787L128.621 24.7223C128.569 23.8533 128.69 22.9826 128.976 22.1605C129.263 21.3383 129.71 20.5811 130.291 19.9323C130.872 19.2835 131.576 18.7561 132.362 18.3804C133.148 18.0047 134.001 17.7883 134.871 17.7435Z" fill="white"/>
<path d="M115.98 36.2433H121.214V1.24927H115.98V36.2433Z" fill="white"/>
</svg>
