<svg width="113" height="33" viewBox="0 0 113 33" fill="none" xmlns="http://www.w3.org/2000/svg">
<path d="M96.832 26.0506C99.6725 25.9362 102.481 25.4083 105.169 24.4837L103.651 31.0081C100.039 31.7642 96.3608 32.161 92.6706 32.1927C79.5275 32.2585 73.8712 25.5117 73.8383 18.5063C73.8116 9.12868 83.9022 -0.223923 100.15 -0.00299746C103.18 0.0410377 106.189 0.507785 109.09 1.38368L106.941 9.08318H105.843C104.505 7.32675 102.463 6.00275 98.4319 6.00275C90.2095 6.00275 85.1085 10.5028 85.132 16.5117C85.1524 21.9361 89.8377 26.0788 96.8367 26.0444" fill="white"/>
<path d="M49.3246 0.313477L48.8211 2.35036C49.2179 2.37146 49.6038 2.48759 49.9463 2.6889C50.2888 2.89021 50.5777 3.17078 50.7889 3.50704C51 3.8433 51.1271 4.22536 51.1595 4.62098C51.1918 5.01659 51.1285 5.41421 50.9748 5.78024L43.8911 31.511L58.0569 31.5314L58.587 29.3174C58.2507 29.2551 57.9307 29.1243 57.6472 28.933C57.3637 28.7417 57.1227 28.4941 56.9392 28.2057C56.7556 27.9173 56.6335 27.5942 56.5805 27.2565C56.5275 26.9189 56.5447 26.574 56.631 26.2433C56.6828 26.0286 58.7062 18.6143 58.7062 18.6143L65.208 18.5939C66.0068 18.5088 66.8143 18.6187 67.5613 18.914C68.3083 19.2093 68.9723 19.6812 69.4965 20.2893L71.3788 12.6509H60.4427L62.0646 6.6483H71.5701C73.3128 6.6483 74.5504 7.81404 74.5504 8.67581H75.6233L77.7189 0.318163H49.3277" fill="white"/>
<path d="M38.5956 26.9186C37.7533 26.0302 30.4594 14.6785 30.4594 14.6785L43.7922 4.02379C44.8035 2.98761 46.1822 2.3905 47.6306 2.36141L48.1576 0.308838L31.5825 0.321366L31.0633 2.35825C32.1942 2.42406 33.7722 3.43003 32.475 4.62867C32.3181 4.77752 19.1578 14.8132 19.1578 14.8132L21.9954 4.55504C22.194 3.97209 22.5533 3.45695 23.0319 3.0689C23.5106 2.68085 24.0892 2.43562 24.7012 2.36141L25.2203 0.313524H9.39817L8.88523 2.35041C9.28586 2.36768 9.67632 2.48176 10.0231 2.68283C10.37 2.8839 10.6628 3.16598 10.8766 3.50489C11.0903 3.8438 11.2186 4.22947 11.2504 4.62877C11.2822 5.02807 11.2166 5.42907 11.0593 5.7975C5.77005 24.8582 6.38179 22.9733 6.03984 24.0168C4.59205 29.5133 2.26115 29.2423 1.41883 29.3002L0.872955 31.5142H17.423L17.983 29.2862C17.983 29.2862 15.3478 28.7597 15.8544 26.8591C16.3485 24.9789 18.4331 17.4815 18.4331 17.4815C20.5918 20.9045 22.9258 24.2138 25.4258 27.3965C28.8767 32.1534 32.5722 31.5361 42.3664 31.5361L42.9123 29.3221C42.0666 29.2481 41.2462 28.9958 40.5054 28.5818C39.7645 28.1677 39.12 27.6014 38.6144 26.9202" fill="white"/>
<path fill-rule="evenodd" clip-rule="evenodd" d="M110.416 0.595613C110.181 0.834122 110.05 1.15512 110.05 1.48949C110.05 1.82387 110.181 2.14496 110.416 2.38347C110.53 2.50895 110.669 2.60893 110.825 2.67697C110.98 2.74501 111.148 2.7795 111.318 2.77824C111.489 2.77916 111.658 2.74456 111.815 2.67659C111.972 2.60861 112.113 2.50882 112.229 2.38347C112.404 2.2026 112.522 1.97453 112.569 1.72743C112.615 1.48032 112.589 1.22496 112.492 0.992872C112.395 0.760788 112.232 0.562119 112.023 0.421369C111.815 0.280619 111.569 0.203974 111.318 0.20084C111.149 0.202503 110.981 0.238276 110.826 0.306132C110.671 0.373987 110.532 0.472448 110.416 0.595613ZM112.369 2.53381C112.233 2.67506 112.069 2.7868 111.888 2.86202C111.707 2.93724 111.512 2.9744 111.316 2.97104C110.943 2.94385 110.593 2.77639 110.338 2.50244C110.083 2.22849 109.942 1.86834 109.942 1.49428C109.942 1.12021 110.083 0.759968 110.338 0.486017C110.593 0.212067 110.943 0.0447029 111.316 0.0175115C111.512 0.0144494 111.706 0.051034 111.887 0.125099C112.068 0.199163 112.232 0.309109 112.369 0.448338C112.509 0.584213 112.619 0.747427 112.693 0.927746C112.768 1.10806 112.804 1.30165 112.8 1.49657C112.803 1.69002 112.767 1.88209 112.693 2.0608C112.618 2.23952 112.508 2.4011 112.369 2.53543M111.584 0.930997C111.476 0.886628 111.359 0.868862 111.242 0.87926H110.999V1.45746H111.257C111.348 1.46557 111.441 1.45212 111.526 1.41825C111.578 1.40295 111.623 1.37028 111.654 1.32577C111.684 1.28126 111.699 1.22761 111.694 1.17381C111.701 1.12725 111.694 1.07975 111.675 1.03677C111.656 0.993788 111.624 0.95714 111.584 0.930997ZM111.283 0.674032C111.434 0.666768 111.584 0.687999 111.727 0.736671C111.807 0.766149 111.875 0.821451 111.92 0.893796C111.966 0.966141 111.985 1.05142 111.977 1.13623C111.983 1.19791 111.971 1.26 111.943 1.31544C111.916 1.37088 111.873 1.41744 111.82 1.44961C111.75 1.49876 111.668 1.52794 111.583 1.53415C111.638 1.5385 111.691 1.5548 111.738 1.58188C111.786 1.60895 111.827 1.64619 111.859 1.6909C111.915 1.76217 111.949 1.84808 111.958 1.93839V2.06693C111.954 2.10497 111.954 2.14326 111.958 2.1813C111.958 2.23301 111.958 2.26433 111.958 2.28H111.97H111.724V2.25963V2.19067V2.07161C111.733 1.99932 111.724 1.92586 111.696 1.85835C111.669 1.79084 111.624 1.73161 111.567 1.68621C111.467 1.64697 111.36 1.62979 111.253 1.636H111.031V2.28315H110.741V0.659878L111.283 0.674032Z" fill="white"/>
</svg>
