<svg width="186" height="39" viewBox="0 0 186 39" fill="none" xmlns="http://www.w3.org/2000/svg">
<path d="M96.1202 19.3992C96.1202 18.8461 96.0888 18.2946 96.059 17.7697C96.0292 17.2448 95.9366 16.6932 95.8739 16.1715H80.9144L78.6337 19.7408L76.3561 23.3085H87.8961C87.2636 25.5721 85.94 27.5823 84.1096 29.0588C82.2196 30.5558 79.8723 31.359 77.4604 31.3339C75.9128 31.3337 74.3812 31.0205 72.958 30.4129C71.5349 29.8054 70.2497 28.9162 69.1799 27.7991C66.9768 25.5336 65.7493 22.4965 65.7604 19.3381C65.7665 17.449 66.2235 15.5887 67.0933 13.9113C67.9632 12.234 69.2209 10.788 70.7621 9.69331C72.3034 8.59862 74.0837 7.88677 75.9554 7.61688C77.8272 7.34698 79.7363 7.52679 81.5246 8.14138C82.7222 8.53814 83.8458 9.13006 84.85 9.89313L86.8514 6.69517L88.853 3.49725C87.2766 2.38772 85.5277 1.54596 83.6767 1.00596C79.0967 -0.325041 74.2049 -0.109145 69.7603 1.62016C67.4809 2.5583 65.4095 3.93685 63.6648 5.67672C60.4298 8.94935 58.3082 13.1562 57.6007 17.7007C56.7694 21.5176 56.3082 24.9882 53.5052 27.7568C52.4211 28.8894 51.1159 29.7876 49.6702 30.3959C48.2246 31.0042 46.6693 31.3096 45.1008 31.2932C41.8783 31.2834 38.7906 30.0008 36.5112 27.7254C35.3911 26.6418 34.5005 25.3443 33.8923 23.9101C33.2841 22.4758 32.9707 20.9341 32.9707 19.3765C32.9707 17.8189 33.2841 16.2771 33.8923 14.8429C34.5005 13.4087 35.3911 12.1112 36.5112 11.0275C38.7876 8.74321 41.8742 7.44818 45.1008 7.42375C46.4265 7.44566 47.7427 7.65239 49.0112 8.03795C50.1986 8.4076 51.313 8.97958 52.3052 9.72859L54.3443 6.53068L56.3835 3.33271C54.8145 2.23962 53.0778 1.40877 51.2417 0.872746C49.2599 0.307007 47.2073 0.0273664 45.1462 0.0423173C42.047 0.0284897 38.9885 0.74878 36.2218 2.14409C33.4551 3.5394 31.059 5.57 29.2299 8.06932C28.5294 5.92235 27.1038 4.08518 25.1971 2.87205C23.0588 1.50608 20.5633 0.803308 18.0256 0.852376H0.683472V37.8786H19.7714C21.984 37.901 24.1661 37.3619 26.1132 36.3118C27.8471 35.357 29.2928 33.955 30.2997 32.2521C32.0879 34.2351 34.268 35.8265 36.7026 36.926C39.4778 38.144 42.4899 38.7291 45.5199 38.6386C48.5498 38.548 51.5215 37.7842 54.2189 36.4027C56.9506 34.9594 59.2954 32.8819 61.0563 30.3452C62.7724 32.8894 65.1015 34.9617 67.8294 36.3713C70.7381 37.8825 73.9716 38.6634 77.2502 38.6464C79.7545 38.6607 82.2356 38.1666 84.5429 37.194C86.8502 36.2214 88.9356 34.7906 90.6725 32.9885C94.2029 29.3467 96.1599 24.4654 96.1217 19.3961L96.1202 19.3992ZM8.7177 15.8628V7.77472H17.8609C18.9488 7.75764 20.0002 8.16586 20.791 8.91227C21.3697 9.48199 21.7642 10.2119 21.9235 11.0078C22.0828 11.8037 21.9997 12.6289 21.6847 13.3771C21.3698 14.1253 20.8377 14.7621 20.1569 15.2052C19.4761 15.6482 18.678 15.8773 17.8656 15.8628H8.7177ZM8.7177 31.0283V22.6332H19.6758C20.8267 22.6246 21.938 23.053 22.7847 23.8318C23.1958 24.2107 23.5232 24.6713 23.7457 25.1839C23.9683 25.6966 24.0812 26.25 24.0772 26.8088C24.079 27.3726 23.9653 27.9307 23.743 28.4489C23.5207 28.9671 23.1946 29.4344 22.7847 29.8219C21.9494 30.6224 20.8333 31.064 19.6758 31.0519H8.71927L8.7177 31.0283Z" fill="white"/>
<path d="M114.377 33.3913C114.404 33.4702 114.415 33.5539 114.408 33.6372C114.408 33.7297 114.44 33.8519 114.44 33.9506C114.467 35.0315 114.07 36.0801 113.334 36.8728C112.956 37.2542 112.505 37.5546 112.007 37.7556C111.51 37.9566 110.976 38.0539 110.44 38.0417C109.878 38.0469 109.322 37.9385 108.803 37.7231C108.285 37.5077 107.815 37.1897 107.423 36.7882C106.825 36.1818 106.419 35.4122 106.257 34.5762C106.095 33.7401 106.185 32.8749 106.514 32.0894C106.843 31.3038 107.397 30.633 108.107 30.1613C108.816 29.6895 109.65 29.4379 110.502 29.4381C110.97 29.435 111.437 29.4973 111.887 29.623C112.32 29.742 112.727 29.9401 113.087 30.2074L112.749 30.7307L112.41 31.2541C112.143 31.0471 111.841 30.8909 111.517 30.7934C111.188 30.6919 110.847 30.6391 110.502 30.6367C110.114 30.6356 109.729 30.711 109.37 30.8586C109.011 31.0062 108.685 31.2231 108.41 31.4969C108.13 31.7864 107.91 32.1281 107.762 32.5026C107.614 32.8771 107.542 33.2771 107.549 33.6796C107.536 34.4866 107.833 35.2679 108.38 35.8622C108.643 36.1457 108.962 36.3713 109.318 36.5248C109.673 36.6783 110.056 36.7563 110.443 36.7537C111.117 36.7728 111.775 36.543 112.291 36.1081C112.752 35.6766 113.055 35.1028 113.152 34.4787H110.35L110.719 33.8942L111.087 33.3098L114.381 33.4022L114.377 33.3913ZM128.293 38.0918C129.443 38.0889 130.548 37.6394 131.372 36.8383C131.772 36.4447 132.09 35.9756 132.306 35.4584C132.523 34.9411 132.635 34.386 132.635 33.8252C132.635 33.2645 132.523 32.7094 132.306 32.1921C132.09 31.6749 131.772 31.2058 131.372 30.8122C130.551 30.006 129.445 29.5556 128.293 29.5587C127.158 29.5587 126.07 30.0091 125.267 30.8107C124.465 31.6123 124.014 32.6995 124.014 33.8331C124.014 34.9667 124.465 36.0539 125.267 36.8555C126.07 37.6571 127.158 38.1074 128.293 38.1074V38.0918ZM135.744 29.6966V34.7419C135.736 35.0213 135.785 35.2994 135.886 35.5597C135.988 35.8201 136.141 36.0575 136.336 36.2578C136.531 36.4581 136.765 36.6174 137.023 36.7261C137.28 36.8349 137.557 36.8909 137.837 36.8909C138.117 36.8909 138.394 36.8349 138.652 36.7261C138.909 36.6174 139.143 36.4581 139.338 36.2578C139.533 36.0575 139.686 35.8201 139.788 35.5597C139.89 35.2994 139.938 35.0213 139.93 34.7419V29.6966H141.223V34.7403C141.207 35.4063 140.997 36.0532 140.62 36.6024C140.242 37.1515 139.713 37.5792 139.097 37.8334C138.48 38.0876 137.803 38.1573 137.148 38.034C136.492 37.9108 135.887 37.5999 135.405 37.1392C135.084 36.8286 134.831 36.4552 134.662 36.0424C134.492 35.6297 134.41 35.1864 134.42 34.7403V29.6966H135.744ZM119.613 29.6966C119.99 29.6811 120.368 29.7411 120.722 29.8733C121.076 30.0054 121.4 30.2069 121.675 30.4659C121.926 30.7099 122.124 31.0027 122.256 31.3261C122.389 31.6496 122.453 31.9967 122.445 32.3461C122.452 32.9074 122.279 33.4561 121.953 33.913C121.628 34.3613 121.144 34.6689 120.599 34.7732L121.584 36.3401L122.569 37.9069H121.028L120.104 36.4309L119.18 34.955H117.611V37.9069H116.287V29.6966H119.613ZM146.827 29.6966C147.596 29.6858 148.342 29.9599 148.92 30.4659C149.171 30.7157 149.368 31.0135 149.5 31.3415C149.633 31.6695 149.697 32.0208 149.69 32.3744C149.695 32.7276 149.629 33.0782 149.497 33.4058C149.365 33.7335 149.169 34.0316 148.92 34.2828C148.352 34.8064 147.598 35.0831 146.826 35.0521H144.944V37.9116H143.62V29.7013L146.827 29.6966ZM128.295 36.8618C127.903 36.8644 127.516 36.7866 127.156 36.6332C126.796 36.4799 126.471 36.2542 126.202 35.9703C125.649 35.3899 125.34 34.619 125.34 33.8174C125.34 33.0158 125.649 32.245 126.202 31.6646C126.473 31.3831 126.798 31.1591 127.158 31.0059C127.517 30.8528 127.904 30.7735 128.295 30.773C128.69 30.7734 129.082 30.8524 129.446 31.0055C129.811 31.1586 130.141 31.3826 130.419 31.6646C130.969 32.247 131.277 33.0166 131.28 33.8174C131.288 34.6204 130.979 35.3943 130.419 35.9703C130.145 36.2572 129.815 36.4845 129.45 36.638C129.084 36.7914 128.691 36.8676 128.295 36.8618ZM146.827 33.8848C147.224 33.8891 147.608 33.7462 147.905 33.4837C148.05 33.3459 148.164 33.1784 148.239 32.9926C148.313 32.8068 148.346 32.6071 148.336 32.4072C148.343 32.2077 148.309 32.0089 148.234 31.8236C148.16 31.6383 148.048 31.4704 147.905 31.3309C147.608 31.0684 147.224 30.9254 146.827 30.9297H144.945V33.8817L146.827 33.8848ZM119.613 33.7626C119.996 33.778 120.37 33.6462 120.659 33.3944C120.794 33.2568 120.899 33.0931 120.968 32.9133C121.037 32.7336 121.068 32.5416 121.06 32.3493C121.071 32.1568 121.041 31.9644 120.972 31.7844C120.903 31.6044 120.796 31.4409 120.66 31.3046C120.524 31.1684 120.36 31.0623 120.18 30.9934C120 30.9245 119.807 30.8943 119.614 30.9047H117.606V33.7704L119.613 33.7626ZM185.336 18.9997C185.363 19.0786 185.374 19.1624 185.367 19.2457C185.367 19.3382 185.399 19.4604 185.399 19.5591C185.426 20.64 185.029 21.6886 184.293 22.4813C183.917 22.867 183.467 23.1722 182.969 23.3783C182.472 23.5844 181.937 23.687 181.399 23.6799C180.837 23.688 180.279 23.581 179.761 23.3654C179.242 23.1498 178.773 22.8302 178.382 22.4264C177.986 22.0251 177.674 21.5496 177.462 21.0271C177.251 20.5046 177.145 19.9455 177.151 19.382C177.143 18.8161 177.25 18.2544 177.465 17.731C177.681 17.2077 178.001 16.7336 178.406 16.3377C178.806 15.9379 179.28 15.6207 179.803 15.4042C180.325 15.1878 180.885 15.0764 181.451 15.0763C181.919 15.0731 182.385 15.1354 182.836 15.2612C183.268 15.3802 183.675 15.5783 184.036 15.8456L183.697 16.369L183.358 16.8923C183.091 16.6853 182.789 16.5292 182.465 16.4317C182.137 16.3302 181.795 16.2774 181.451 16.275C181.062 16.2737 180.677 16.3491 180.318 16.4967C179.958 16.6443 179.632 16.8613 179.356 17.1352C178.808 17.7283 178.5 18.5048 178.494 19.3125C178.489 20.1202 178.785 20.901 179.325 21.502C179.588 21.7855 179.907 22.0111 180.262 22.1646C180.618 22.3181 181.001 22.3961 181.388 22.3935C182.062 22.4122 182.719 22.1825 183.234 21.748C183.696 21.3165 183.999 20.7426 184.095 20.1185H181.306L181.675 19.534L182.043 18.9496L185.337 19.0107L185.336 18.9997ZM142.828 15.3098V20.3535C142.82 20.6329 142.868 20.911 142.97 21.1714C143.072 21.4318 143.225 21.6691 143.42 21.8695C143.615 22.0698 143.848 22.229 144.106 22.3377C144.364 22.4464 144.641 22.5024 144.921 22.5024C145.201 22.5024 145.478 22.4464 145.735 22.3377C145.993 22.229 146.227 22.0698 146.422 21.8695C146.617 21.6691 146.77 21.4318 146.871 21.1714C146.973 20.911 147.022 20.6329 147.014 20.3535V15.3098H148.307V20.3535C148.29 21.0195 148.081 21.6664 147.703 22.2156C147.326 22.7647 146.797 23.1924 146.18 23.4466C145.564 23.7008 144.887 23.7705 144.231 23.6472C143.576 23.524 142.97 23.2131 142.489 22.7523C142.168 22.4418 141.915 22.0684 141.746 21.6556C141.576 21.2428 141.494 20.7995 141.504 20.3535V15.3098H142.828ZM136.701 23.705C137.471 23.7392 138.227 23.4888 138.825 23.0015C139.071 22.7745 139.266 22.4986 139.399 22.1915C139.532 21.8844 139.598 21.5529 139.595 21.2184C139.611 20.9044 139.549 20.5914 139.414 20.3071C139.28 20.0228 139.077 19.7761 138.825 19.5888C138.298 19.2356 137.714 18.9753 137.099 18.8195C136.646 18.7196 136.211 18.5539 135.807 18.3275C135.654 18.2497 135.527 18.1304 135.44 17.9835C135.353 17.8365 135.309 17.6679 135.314 17.4971C135.311 17.343 135.34 17.1898 135.398 17.0471C135.456 16.9043 135.543 16.7749 135.653 16.6667C135.957 16.423 136.342 16.3022 136.731 16.3282C137.394 16.3436 138.037 16.5575 138.577 16.9424L138.916 16.4191L139.254 15.8958C138.919 15.6514 138.545 15.4645 138.149 15.3427C137.71 15.2068 137.254 15.1345 136.795 15.128C136.054 15.0882 135.325 15.3301 134.756 15.8049C134.518 16.0299 134.329 16.3017 134.202 16.6033C134.075 16.9048 134.012 17.2295 134.017 17.5566C133.997 17.8711 134.057 18.1856 134.192 18.4705C134.326 18.7555 134.531 19.0017 134.787 19.1862C135.316 19.5291 135.899 19.7787 136.512 19.9242C136.961 20.0379 137.395 20.203 137.805 20.4162C137.957 20.494 138.084 20.6132 138.171 20.7602C138.259 20.9072 138.302 21.0758 138.298 21.2466C138.303 21.4114 138.269 21.5752 138.2 21.7246C138.13 21.8741 138.026 22.005 137.896 22.1068C137.558 22.3545 137.144 22.4745 136.726 22.4452C136.326 22.4392 135.931 22.3667 135.556 22.2306C135.181 22.0771 134.821 21.892 134.478 21.6775L134.139 22.2008L133.8 22.7241C134.178 23.005 134.592 23.2327 135.032 23.401C135.561 23.6108 136.125 23.7172 136.694 23.7144L136.701 23.705ZM118.753 23.705C119.903 23.7022 121.008 23.2527 121.832 22.4515C122.539 21.7467 122.98 20.819 123.079 19.8262C123.179 18.8334 122.931 17.8369 122.378 17.006C121.825 16.1752 121.001 15.5614 120.046 15.2691C119.091 14.9767 118.064 15.0238 117.14 15.4023C116.216 15.7809 115.451 16.4675 114.977 17.3455C114.502 18.2234 114.347 19.2385 114.537 20.218C114.727 21.1975 115.251 22.0809 116.02 22.7181C116.788 23.3552 117.754 23.7067 118.753 23.7128V23.705ZM106.161 19.429C106.159 19.994 106.269 20.5536 106.485 21.076C106.7 21.5984 107.016 22.0733 107.415 22.4734C108.249 23.28 109.364 23.7298 110.524 23.7269C111.047 23.7301 111.567 23.647 112.063 23.4809C112.51 23.3291 112.927 23.0999 113.294 22.804L112.956 22.2807L112.617 21.7574C112.321 21.9938 111.988 22.1806 111.632 22.3105C111.266 22.4364 110.88 22.499 110.493 22.4954C110.107 22.4949 109.724 22.4156 109.37 22.2623C109.015 22.109 108.695 21.8849 108.43 21.6038C107.875 21.0128 107.567 20.2319 107.569 19.4212C107.561 19.0186 107.633 18.6183 107.781 18.2436C107.928 17.8689 108.149 17.5273 108.43 17.2386C108.695 16.9575 109.015 16.7334 109.37 16.5801C109.724 16.4268 110.107 16.3475 110.493 16.347C110.881 16.3408 111.266 16.4034 111.632 16.5319C111.988 16.6618 112.321 16.8486 112.617 17.085L112.956 16.5617L113.294 16.0384C112.924 15.7475 112.508 15.5189 112.063 15.3615C111.567 15.1954 111.047 15.1123 110.524 15.1155C109.953 15.1074 109.386 15.2128 108.856 15.4256C108.326 15.6383 107.844 15.9542 107.437 16.3548C107.03 16.7554 106.707 17.2328 106.487 17.7592C106.266 18.2857 106.153 18.8506 106.153 19.4212L106.161 19.429ZM165.609 23.5201H164.286V15.3098H165.609V23.5201ZM169.796 23.5201H168.541V15.3098H170.172L172.083 18.4153L173.994 21.5208V15.3098H175.248V23.5201H173.71L171.74 20.3519L169.769 17.1837V23.5185L169.796 23.5201ZM162.279 16.535H159.693V23.5154H158.336V16.535H155.781V15.3051H162.276V16.535H162.279ZM151.966 22.2901H156.036V23.5201H150.648V15.3129H151.972V22.2933L151.966 22.2901ZM126.227 23.5201H124.973V15.3129H126.604L128.514 18.4184L130.425 21.5239V15.3129H131.68V23.5232H130.141L128.171 20.3551L126.201 17.1869V23.5217L126.227 23.5201ZM118.747 22.475C118.356 22.4776 117.968 22.3998 117.608 22.2464C117.248 22.0931 116.923 21.8674 116.654 21.5835C116.104 21.001 115.796 20.2314 115.793 19.4306C115.785 18.6276 116.094 17.8537 116.654 17.2777C116.925 16.9962 117.25 16.7722 117.61 16.619C117.969 16.4658 118.356 16.3866 118.747 16.3862C119.142 16.3866 119.534 16.4657 119.898 16.6187C120.263 16.7718 120.594 16.9958 120.871 17.2777C121.421 17.8602 121.729 18.6299 121.732 19.4306C121.74 20.2336 121.431 21.0075 120.871 21.5835C120.594 21.866 120.264 22.0906 119.899 22.2442C119.534 22.3978 119.143 22.4773 118.747 22.4781V22.475ZM142.86 9.2821C144.011 9.27935 145.115 8.82986 145.94 8.02864C146.74 7.22921 147.191 6.14605 147.194 5.01558C147.185 3.87701 146.736 2.78608 145.94 1.97121C145.133 1.17335 144.043 0.725804 142.907 0.725826C141.772 0.725847 140.682 1.17341 139.875 1.9713C139.068 2.76919 138.609 3.85296 138.597 4.98713C138.586 6.12131 139.022 7.2143 139.813 8.02864C140.209 8.43307 140.684 8.75275 141.208 8.96824C141.732 9.18372 142.294 9.29049 142.86 9.2821ZM127.037 9.2821C127.809 9.33039 128.57 9.07828 129.161 8.57858C129.407 8.35166 129.602 8.07574 129.735 7.76862C129.868 7.46149 129.934 7.13003 129.931 6.79555C129.947 6.48158 129.885 6.16855 129.75 5.88427C129.616 5.59999 129.413 5.35325 129.161 5.16602C128.627 4.82509 128.045 4.56579 127.435 4.3967C126.982 4.29682 126.547 4.13106 126.143 3.90471C125.99 3.82692 125.863 3.7076 125.776 3.56063C125.689 3.41365 125.645 3.24504 125.65 3.07428C125.647 2.92014 125.676 2.767 125.734 2.62424C125.792 2.48147 125.879 2.35202 125.989 2.24381C126.293 2.00014 126.678 1.8794 127.067 1.90541C127.73 1.92072 128.373 2.13471 128.913 2.51961L129.252 1.99626L129.59 1.47296C129.255 1.22861 128.881 1.0417 128.485 0.919865C128.046 0.783973 127.59 0.711646 127.131 0.705169C126.39 0.66534 125.661 0.907185 125.092 1.38206C124.854 1.60703 124.665 1.87891 124.538 2.18045C124.411 2.48199 124.348 2.80664 124.353 3.13382C124.333 3.44831 124.393 3.76272 124.528 4.04768C124.663 4.33265 124.867 4.57883 125.123 4.7633C125.652 5.10619 126.235 5.35583 126.848 5.5013C127.297 5.61502 127.731 5.7801 128.141 5.99329C128.293 6.07108 128.42 6.1904 128.507 6.33738C128.595 6.48435 128.638 6.65296 128.634 6.82372C128.639 6.98854 128.606 7.15237 128.536 7.30183C128.466 7.4513 128.362 7.58222 128.232 7.68394C127.894 7.93167 127.48 8.05162 127.062 8.02238C126.663 8.01636 126.267 7.94382 125.892 7.80773C125.517 7.65426 125.157 7.46923 124.814 7.25464L124.475 7.77794L124.136 8.30129C124.514 8.5821 124.928 8.80982 125.368 8.97814C125.892 9.2025 126.46 9.30948 127.03 9.29152L127.037 9.2821ZM118.508 9.2821C119.659 9.27918 120.763 8.82972 121.587 8.02864C122.388 7.22921 122.839 6.14605 122.842 5.01558C122.833 3.87701 122.384 2.78608 121.587 1.97121C120.78 1.17335 119.691 0.725804 118.555 0.725826C117.42 0.725847 116.33 1.17341 115.523 1.9713C114.716 2.76919 114.257 3.85296 114.245 4.98713C114.233 6.12131 114.67 7.2143 115.461 8.02864C115.857 8.43307 116.332 8.75275 116.856 8.96824C117.38 9.18372 117.942 9.29049 118.508 9.2821ZM150.703 0.916709L152.614 4.02378L154.524 7.12926V0.918287H155.779V9.12857H154.237L152.272 5.96197L150.302 2.79379V9.15989H149.07V0.948029L150.702 0.916709H150.703ZM137.711 0.916709V2.14669H135.124V9.12699H133.771V2.14669H131.215V0.916709H137.711ZM109.819 0.916709C110.477 0.907267 111.118 1.12412 111.635 1.53091C111.864 1.72301 112.049 1.9626 112.177 2.23314C112.304 2.50369 112.372 2.79872 112.374 3.09776C112.376 3.43135 112.292 3.75982 112.127 4.05041C111.957 4.33437 111.714 4.56798 111.423 4.7273C111.811 4.89907 112.142 5.17793 112.377 5.53109C112.599 5.88036 112.717 6.286 112.716 6.69997C112.717 7.01766 112.653 7.33218 112.525 7.62335C112.398 7.91452 112.211 8.17586 111.977 8.39057C111.46 8.84909 110.786 9.09144 110.095 9.06746H106.584V0.86655L109.817 0.927659L109.819 0.916709ZM142.86 8.04744C142.469 8.05003 142.081 7.97224 141.722 7.81887C141.362 7.6655 141.037 7.43983 140.768 7.1559C140.218 6.57342 139.91 5.80382 139.907 5.00306C139.904 4.20115 140.213 3.42944 140.768 2.85022C141.039 2.56955 141.364 2.34635 141.724 2.19398C142.083 2.04161 142.47 1.96318 142.86 1.96336C143.256 1.96376 143.647 2.04278 144.012 2.19585C144.377 2.34891 144.707 2.57295 144.984 2.8549C145.534 3.43738 145.842 4.20698 145.846 5.00774C145.854 5.81076 145.545 6.58459 144.984 7.16058C144.711 7.44741 144.381 7.67438 144.016 7.82705C143.65 7.97972 143.257 8.05478 142.86 8.04744ZM118.508 8.04744C118.117 8.05003 117.729 7.97224 117.369 7.81887C117.009 7.6655 116.685 7.43983 116.416 7.1559C115.866 6.57342 115.558 5.80382 115.555 5.00306C115.552 4.20118 115.861 3.42953 116.416 2.85022C116.686 2.5705 117.01 2.34785 117.368 2.19551C117.726 2.04317 118.111 1.96423 118.501 1.96336C118.896 1.96376 119.288 2.04278 119.652 2.19585C120.017 2.34891 120.347 2.57295 120.624 2.8549C121.175 3.43738 121.482 4.20698 121.486 5.00774C121.494 5.81076 121.185 6.58459 120.624 7.16058C120.352 7.44826 120.022 7.67614 119.656 7.82963C119.291 7.98312 118.897 8.05886 118.501 8.05212L118.508 8.04744ZM110.038 7.92522C110.209 7.92998 110.379 7.89979 110.538 7.83647C110.697 7.77315 110.841 7.67807 110.962 7.55703C111.193 7.32981 111.326 7.02078 111.331 6.69681C111.335 6.53533 111.304 6.3748 111.241 6.2263C111.177 6.07779 111.082 5.94483 110.962 5.83659C110.707 5.6128 110.378 5.49216 110.038 5.4982H107.914V7.89701L110.038 7.92837V7.92522ZM109.823 4.38885C109.982 4.39184 110.14 4.36349 110.288 4.30541C110.435 4.24734 110.57 4.16067 110.684 4.05041C110.902 3.82848 111.023 3.5304 111.023 3.21998C111.023 2.90956 110.902 2.61148 110.684 2.38955C110.57 2.27929 110.435 2.19262 110.288 2.13455C110.14 2.07647 109.982 2.04812 109.823 2.05111H107.913V4.36064L109.823 4.39196V4.38885Z" fill="white"/>
</svg>
