<svg xmlns="http://www.w3.org/2000/svg" width="14" height="12.585" viewBox="0 0 14 12.585">
  <g id="Mobile_Commerce_App_Development" data-name="Mobile Commerce App Development" transform="translate(-1250.326 -1242.244)">
    <g id="Group_1036" data-name="Group 1036" transform="translate(1250.326 1242.244)">
      <circle id="Ellipse_3" data-name="Ellipse 3" cx="0.866" cy="0.866" r="0.866" transform="translate(4.289 10.854)" fill="#fff"/>
      <circle id="Ellipse_4" data-name="Ellipse 4" cx="0.866" cy="0.866" r="0.866" transform="translate(9.335 10.854)" fill="#fff"/>
      <path id="Path_1927" data-name="Path 1927" d="M262.374,113.552H252l-.438-1.7H248.88c-.343,0-.506.351-.506.694s.19.662.533.662h1.624l2.243,8.677h7.174c.344,0,.633-.107.621-.75a.661.661,0,0,0-.647-.662H253.8l-.152-.776h6.917Zm-9.109,4.9-.824-3.315h8.128l-.933,3.315Z" transform="translate(-248.374 -111.856)" fill="#fff"/>
    </g>
  </g>
</svg>
