<svg xmlns="http://www.w3.org/2000/svg" width="73.095" height="59.198" viewBox="0 0 73.095 59.198">
  <g id="Group_105701" data-name="Group 105701" transform="translate(1313.842 -8657)">
    <path id="Path_22200" data-name="Path 22200" d="M72.559,21.77C69.134,6.008,50.233-3.263,30.343,1.062S-2.888,21.67.537,37.43,22.868,62.461,42.753,58.135,75.986,37.53,72.559,21.763M36.55,44.128A14.527,14.527,0,1,1,51.077,29.6,14.527,14.527,0,0,1,36.55,44.128" transform="translate(-1313.842 8657)" fill="#00969f"/>
    <path id="Path_22201" data-name="Path 22201" d="M28.6,3.794A20.862,20.862,0,1,0,49.467,24.655,20.862,20.862,0,0,0,28.6,3.794M25.392,36.82A12.694,12.694,0,1,1,38.086,24.126,12.694,12.694,0,0,1,25.392,36.82" transform="translate(-1302.684 8662.467)" fill="#5ac5cb"/>
  </g>
</svg>
