<svg width="16" height="17" viewBox="0 0 16 17" fill="none" xmlns="http://www.w3.org/2000/svg">
<path fill-rule="evenodd" clip-rule="evenodd" d="M8.37478 4.9701C9.00548 5.6008 9.00548 6.62336 8.37478 7.25406L5.12917 10.4997C4.49847 11.1304 3.4759 11.1304 2.8452 10.4997C2.21452 9.86899 2.21452 8.84642 2.8452 8.21572L6.09083 4.9701C6.72153 4.3394 7.74409 4.3394 8.37478 4.9701ZM3.80688 9.17739L7.0525 5.93177C7.15209 5.83218 7.31354 5.83218 7.41312 5.93177C7.51271 6.03135 7.51271 6.1928 7.41312 6.29239L4.1675 9.53801C4.06791 9.6376 3.90646 9.6376 3.80688 9.53801C3.70729 9.43843 3.70729 9.27696 3.80688 9.17739Z" fill="white"/>
<path fill-rule="evenodd" clip-rule="evenodd" d="M12.75 13.1162C12.75 14.1345 11.9128 14.96 10.88 14.96C9.84724 14.96 9.01001 14.1345 9.01001 13.1162C9.01001 12.4837 9.73129 11.4465 10.2779 10.7512C10.5889 10.3557 11.1711 10.3557 11.4821 10.7512C12.0287 11.4465 12.75 12.4837 12.75 13.1162ZM11.3886 13.1512C11.37 13.387 11.1657 13.6 10.88 13.6C10.5943 13.6 10.39 13.387 10.3714 13.1512C10.4215 12.9719 10.5198 12.8031 10.613 12.6437C10.693 12.507 10.7838 12.3658 10.88 12.225C10.9763 12.3658 11.067 12.507 11.147 12.6437C11.2402 12.8031 11.3385 12.9719 11.3886 13.1512Z" fill="white"/>
<path fill-rule="evenodd" clip-rule="evenodd" d="M12.24 2.227V0.85C12.24 0.380562 11.8594 0 11.39 0H8.33C7.86056 0 7.48 0.380562 7.48 0.85V2.21H6.14093C5.69197 2.21 5.26125 2.38758 4.94277 2.704L0.50184 7.11608C0.180625 7.4352 0 7.86928 0 8.32208V15.3C0 16.2389 0.761107 17 1.7 17H11.22C11.4192 17 11.6104 16.9657 11.7881 16.9028C13.6989 16.4869 15.13 14.7856 15.13 12.75C15.13 11.1421 14.237 9.74268 12.92 9.02069V3.06C12.92 2.64877 12.628 2.30576 12.24 2.227ZM10.88 2.21V1.36H8.84V2.21H10.88ZM6.63 12.75C6.63 13.8661 7.0602 14.8816 7.76382 15.64H1.7C1.51222 15.64 1.36 15.4879 1.36 15.3V8.32208C1.36 8.23152 1.39613 8.1447 1.46037 8.08088L5.9013 3.6688C5.96499 3.60551 6.05113 3.57 6.14093 3.57H11.56V8.55411C11.3386 8.5185 11.1115 8.5 10.88 8.5C8.53279 8.5 6.63 10.4028 6.63 12.75ZM10.88 15.64C12.4761 15.64 13.77 14.3461 13.77 12.75C13.77 11.1539 12.4761 9.86 10.88 9.86C9.2839 9.86 7.99 11.1539 7.99 12.75C7.99 14.3461 9.2839 15.64 10.88 15.64Z" fill="white"/>
</svg>
