<svg xmlns="http://www.w3.org/2000/svg" width="16.667" height="11.232" viewBox="0 0 16.667 11.232">
  <g id="on-demand" transform="translate(0 0)">
    <path id="Path_1454" data-name="Path 1454" d="M922.83,644.727a.956.956,0,0,1,.328-.836c.739-.6,2.532-1.343,6.231.4a.53.53,0,0,1,.3.621.215.215,0,0,1-.131.146c-.151.069-.79.228-2.649-.6l-.19-.086a.645.645,0,0,0-.86.335.677.677,0,0,0,.326.884c.069.032.137.063.2.093,1.724.771,2.9.963,3.694.6a1.533,1.533,0,0,0,.838-.937,1.867,1.867,0,0,0-.992-2.267c-4.111-1.941-6.391-1.2-7.579-.239a2.288,2.288,0,0,0-.816,2.024l.327,3.216-.616.066a.669.669,0,0,0,.066,1.333.611.611,0,0,0,.068,0l1.263-.135a.646.646,0,0,0,.438-.244.679.679,0,0,0,.141-.49Z" transform="translate(-920.663 -638.328)" fill="#fff"/>
    <path id="Path_1455" data-name="Path 1455" d="M952.936,649.215l-.016-.056a1.363,1.363,0,0,0-.695-.891,1.641,1.641,0,0,0-1.384.05c-1.725.715-2.679,1.134-2.688,1.138a.677.677,0,0,0-.342.877.645.645,0,0,0,.854.351c.009,0,.952-.419,2.663-1.128a.916.916,0,0,1,.32-.083.406.406,0,0,1,.025.068l.016.057a3.51,3.51,0,0,1,.139.585l-.041.018-7.69,3.043-3.118-1.495a.644.644,0,0,0-.864.322.677.677,0,0,0,.314.888l3.369,1.615a.635.635,0,0,0,.509.018l7.947-3.144C953.449,650.975,953.115,649.83,952.936,649.215Z" transform="translate(-936.452 -643.404)" fill="#fff"/>
    <path id="Path_1456" data-name="Path 1456" d="M969.664,626.805l1.169.173.1.516a.659.659,0,0,0,.536.524.64.64,0,0,0,.666-.331l.263-.477.815.121a.646.646,0,0,0,.669-.351.682.682,0,0,0-.1-.765l-.519-.573.46-.835a.682.682,0,0,0-.09-.785.639.639,0,0,0-.755-.148l-.843.412-.67-.739a.638.638,0,0,0-.774-.138.674.674,0,0,0-.338.729l.188.927-.967.473a.673.673,0,0,0-.364.7A.659.659,0,0,0,969.664,626.805Z" transform="translate(-960.107 -623.335)" fill="#fff"/>
  </g>
</svg>
