<svg xmlns="http://www.w3.org/2000/svg" width="9.257" height="12.016" viewBox="0 0 9.257 12.016">
  <path id="Path_2484" data-name="Path 2484" d="M1875.445,626.582a3.839,3.839,0,0,0-1.79-1.145,2.609,2.609,0,0,0,.217-3.467l.673-1.747a.528.528,0,0,0-.493-.719h-4.5a.528.528,0,0,0-.486.737l.721,1.681a2.609,2.609,0,0,0,.273,3.6,3.792,3.792,0,0,0-1.654,1.153,5.991,5.991,0,0,0-.966,4.411.529.529,0,1,0,1.041-.186,4.966,4.966,0,0,1,.739-3.551,4.043,4.043,0,0,1,5.429-.07,5.183,5.183,0,0,1,.872,3.639.529.529,0,1,0,1.047.152A6.19,6.19,0,0,0,1875.445,626.582Zm-3.636-4.565a1.555,1.555,0,0,1,1.086.44l0,0a1.56,1.56,0,1,1-1.088-.444Zm1.471-1.456-.268.694a2.6,2.6,0,0,0-2.372-.017l-.291-.677Z" transform="translate(-1867.358 -619.504)" fill="#fff"/>
</svg>
