<svg xmlns="http://www.w3.org/2000/svg" width="13.154" height="13.673" viewBox="0 0 13.154 13.673">
  <g id="Restaurants" transform="translate(-0.006 -0.002)">
    <path id="Path_1470" data-name="Path 1470" d="M1542.131,608.837h.058a1.318,1.318,0,0,0,.88-.363l2.455-2.251a.45.45,0,0,0,.023-.643.466.466,0,0,0-.653-.023l-2.464,2.259a.168.168,0,0,0-.03.029c-.131.116-.46.162-.982-.205l2.389-2.329a.45.45,0,0,0,0-.644.467.467,0,0,0-.653,0l-2.41,2.35a1.052,1.052,0,0,1-.26-.7,1.16,1.16,0,0,1,.431-.738.409.409,0,0,0,.045-.037l1.927-1.809a.451.451,0,0,0,.016-.643.467.467,0,0,0-.653-.015l-1.909,1.793a2.031,2.031,0,0,0-.777,1.378,1.959,1.959,0,0,0,.524,1.418l-5.415,5.281a.45.45,0,0,0,0,.643.467.467,0,0,0,.653,0l5.432-5.3A2.3,2.3,0,0,0,1542.131,608.837Z" transform="translate(-1534.533 -602.94)" fill="#fff"/>
    <path id="Path_1471" data-name="Path 1471" d="M1564.652,632.186a.467.467,0,0,0-.653-.026l-5.234,4.756a2.514,2.514,0,0,0-2.952.155,5.068,5.068,0,0,0-1.323,1.973,2.321,2.321,0,0,0,.067,2.344,1.741,1.741,0,0,0,1.391.537,4.043,4.043,0,0,0,.9-.111,5.622,5.622,0,0,0,2.13-.978,2.42,2.42,0,0,0,.448-3.281l5.2-4.725a.45.45,0,0,0,.027-.645Zm-6.262,7.947a4.774,4.774,0,0,1-1.751.794c-.666.153-1.177.108-1.37-.12s-.167-.788.085-1.44a4.244,4.244,0,0,1,1.047-1.594,1.559,1.559,0,0,1,.991-.353q.073,0,.148.007a1.553,1.553,0,0,1,1.053.548,1.519,1.519,0,0,1-.206,2.158Z" transform="translate(-1551.614 -628.255)" fill="#fff"/>
  </g>
</svg>
