<svg xmlns="http://www.w3.org/2000/svg" width="12.03" height="13.915" viewBox="0 0 12.03 13.915">
  <g id="SaaS" transform="translate(0.004 -0.001)">
    <path id="Path_1492" data-name="Path 1492" d="M2328.311,621.791a.468.468,0,0,0-.464-.472h-2.491v-4.751h7.083v.711a.464.464,0,1,0,.927,0v-3.646a.468.468,0,0,0-.464-.472h-8.01a.468.468,0,0,0-.464.472v8.158a.468.468,0,0,0,.464.472h2.955A.468.468,0,0,0,2328.311,621.791Zm4.128-7.686v1.519h-7.083v-1.519Z" transform="translate(-2324.432 -613.16)" fill="#fff"/>
    <path id="Path_1493" data-name="Path 1493" d="M2333.982,623.144h.059a.472.472,0,0,0,0-.944h-.059a.472.472,0,0,0,0,.944Z" transform="translate(-2332.315 -620.98)" fill="#fff"/>
    <path id="Path_1494" data-name="Path 1494" d="M2342.982,623.144h.059a.472.472,0,0,0,0-.944h-.059a.472.472,0,0,0,0,.944Z" transform="translate(-2340.123 -620.98)" fill="#fff"/>
    <path id="Path_1495" data-name="Path 1495" d="M2351.982,623.144h.059a.472.472,0,1,0,0-.944h-.059a.472.472,0,0,0,0,.944Z" transform="translate(-2347.931 -620.98)" fill="#fff"/>
    <path id="Path_1496" data-name="Path 1496" d="M2375.035,676.108a1.345,1.345,0,1,0,1.321,1.345,1.345,1.345,0,0,0-1.321-1.345Zm0,2.215a.87.87,0,1,1,.855-.87A.87.87,0,0,1,2375.035,678.323Z" transform="translate(-2367.931 -668.386)" fill="#fff"/>
    <path id="Path_1497" data-name="Path 1497" d="M2357.265,647.94h-1.7a2.851,2.851,0,0,0-.512-1.22l1.321-1.173a.478.478,0,0,0,.045-.666.457.457,0,0,0-.654-.046l-1.382,1.227a2.745,2.745,0,0,0-1.105-.45V643.9a.464.464,0,1,0-.927,0v1.708a2.744,2.744,0,0,0-1.083.436l-1.029-1.04a.458.458,0,0,0-.656,0,.478.478,0,0,0,0,.668l1.008,1.019a2.865,2.865,0,0,0-.139,3.229l-1.33,1.125a.478.478,0,0,0-.059.665.458.458,0,0,0,.653.061l1.354-1.146a2.754,2.754,0,0,0,1.279.583V652.8a.464.464,0,1,0,.927,0v-1.584a2.739,2.739,0,0,0,1.037-.407l1.125.967a.458.458,0,0,0,.653-.056.478.478,0,0,0-.055-.665l-1.03-.885a2.855,2.855,0,0,0,.557-1.281h1.7a.472.472,0,0,0,0-.944Zm-4.45,2.371a1.9,1.9,0,1,1,1.865-1.9,1.9,1.9,0,0,1-1.865,1.9Z" transform="translate(-2345.712 -639.345)" fill="#fff"/>
  </g>
</svg>
