<svg xmlns="http://www.w3.org/2000/svg" width="20.57" height="24" viewBox="0 0 20.57 24">
  <g id="Icon" transform="translate(-4.056 -2.057)">
    <path id="Path_74291" data-name="Path 74291" d="M23.373,6.021,15.038,2.18l-.129-.052a2.308,2.308,0,0,0-1.137,0l-.129.052L5.308,6.021A2.153,2.153,0,0,0,4.059,8.1L4.352,13a14.862,14.862,0,0,0,9.3,12.916,1.662,1.662,0,0,0,.7.146,1.55,1.55,0,0,0,.663-.138A14.862,14.862,0,0,0,24.329,13l.293-4.891a2.153,2.153,0,0,0-1.249-2.092Zm-4.512,6.027-4.6,5.166a.861.861,0,0,1-.594.293h-.043a.861.861,0,0,1-.586-.224l-3.16-2.91a.862.862,0,1,1,1.171-1.266l2.514,2.316,4-4.512a.861.861,0,0,1,1.292,1.137Z" transform="translate(0)" fill="#fff"/>
  </g>
</svg>
