<svg xmlns="http://www.w3.org/2000/svg" width="12.848" height="13.117" viewBox="0 0 12.848 13.117">
  <g id="social-media" transform="translate(-0.001)">
    <path id="Path_1460" data-name="Path 1460" d="M1237.833,651.97a2.464,2.464,0,0,0,.711-1.729,2.524,2.524,0,1,0-5.048,0,2.465,2.465,0,0,0,.717,1.735,3.222,3.222,0,0,0-1.991,2.779.542.542,0,0,0,.536.542h.011a.545.545,0,0,0,.547-.527c.006-.207.13-2.025,2.708-2.042,2.6-.01,2.823,1.921,2.839,2.137a.542.542,0,0,0,.545.506h.034a.542.542,0,0,0,.51-.572A3.366,3.366,0,0,0,1237.833,651.97Zm-1.813-3.142a1.412,1.412,0,1,1,0,2.825h0a1.412,1.412,0,1,1,0-2.825Z" transform="translate(-1232.221 -642.255)" fill="#fff"/>
    <path id="Path_1461" data-name="Path 1461" d="M1265.151,612.712a.542.542,0,0,0-.547-.539h-8.037a.542.542,0,0,0-.547.539v3.935a.547.547,0,0,0,1.093,0v-3.4h6.944v6.38a.494.494,0,0,0,.005.052,2.566,2.566,0,0,1-1.1,1.425,2.992,2.992,0,0,0,.057-1.611c0-.012-.009-.023-.013-.034a.579.579,0,0,0-.02-.055c-.007-.015-.016-.029-.024-.044a.433.433,0,0,0-.029-.046.479.479,0,0,0-.032-.038.547.547,0,0,0-.039-.041l-.032-.027a.575.575,0,0,0-.052-.037l-.03-.016a.563.563,0,0,0-.066-.032l-.027-.008a.549.549,0,0,0-.076-.019l-.026,0a.517.517,0,0,0-.064-.006h-2.623a.539.539,0,0,0,0,1.079h2.142a1.435,1.435,0,0,1-.186.8,1.074,1.074,0,0,1-.759.438c-.272.049-.91.164-.893.715,0,.122.064.525.675.6a2.28,2.28,0,0,0,.275.015,4.169,4.169,0,0,0,4.006-2.81q0-.151.021-.3Z" transform="translate(-1252.304 -612.173)" fill="#fff"/>
    <path id="Path_1462" data-name="Path 1462" d="M1269.788,626.379h2.86a.539.539,0,0,0,0-1.079h-2.86a.539.539,0,0,0,0,1.079Z" transform="translate(-1263.463 -623.277)" fill="#fff"/>
    <path id="Path_1463" data-name="Path 1463" d="M1269.788,637.379h2.86a.539.539,0,0,0,0-1.079h-2.86a.539.539,0,0,0,0,1.079Z" transform="translate(-1263.463 -632.581)" fill="#fff"/>
  </g>
</svg>
