<svg id="performance-security-icon4" xmlns="http://www.w3.org/2000/svg" width="55.297" height="13.47" viewBox="0 0 55.297 13.47">
  <path id="Path_22235" data-name="Path 22235" d="M29.057,43.2a1.989,1.989,0,1,1,.527-2.763,1.989,1.989,0,0,1-.527,2.763m1.23-3.243a2.839,2.839,0,1,0-1.216,4.2l1.1,1.785.872-.592-1.1-1.785a2.84,2.84,0,0,0,.343-3.608M0,43.932a3.813,3.813,0,0,0,1.744.386c1.546,0,2.329-.74,2.329-1.755-.011-.783-.431-1.3-1.457-1.656-.663-.221-.872-.364-.872-.618s.232-.431.64-.431a2.867,2.867,0,0,1,1.17.3l.287-1.148a3.548,3.548,0,0,0-1.51-.32c-1.336,0-2.2.762-2.2,1.777C.121,41.1.552,41.7,1.677,42.077c.618.2.783.342.783.618s-.21.442-.717.442A3.279,3.279,0,0,1,.3,42.74Zm7.045.4a2.7,2.7,0,0,0,2.837-2.87,2.625,2.625,0,0,0-2.749-2.771,2.7,2.7,0,0,0-2.892,2.859A2.644,2.644,0,0,0,7.035,44.33Zm.022-1.2c-.706,0-1.093-.7-1.093-1.612,0-.806.309-1.622,1.1-1.622.762,0,1.071.817,1.071,1.612,0,.971-.408,1.622-1.071,1.622Zm3.3,1.082h1.677V41.1a1.208,1.208,0,0,1,.056-.419.921.921,0,0,1,.861-.629c.607,0,.85.475.85,1.17V44.21h1.677V41.018c0-1.59-.828-2.329-1.932-2.329a1.939,1.939,0,0,0-1.667.872h-.035l-.077-.75H10.322c.022.486.044,1.048.044,1.722Zm10.409-3.19a2.091,2.091,0,0,0-2.362-2.329,4.432,4.432,0,0,0-2.1.486l.309,1.071a3.157,3.157,0,0,1,1.49-.4c.828,0,.982.408.982.7v.066c-1.91,0-3.168.663-3.168,2.064a1.655,1.655,0,0,0,1.744,1.656,1.945,1.945,0,0,0,1.545-.66h.033l.1.541h1.51a7,7,0,0,1-.088-1.3Zm-1.622,1.225a1.2,1.2,0,0,1-.033.287.928.928,0,0,1-.872.618.6.6,0,0,1-.663-.64c0-.64.684-.85,1.566-.85Zm2.4,1.965h1.677V41.481a1.9,1.9,0,0,1,.033-.375,1.069,1.069,0,0,1,1.148-.85,2.508,2.508,0,0,1,.452.044V38.722a1.671,1.671,0,0,0-.353-.033,1.573,1.573,0,0,0-1.457,1.126h-.044l-.066-1.006H21.515c.033.464.044.982.044,1.777ZM35.823,38.9h-.971v3.268a1.332,1.332,0,0,1-.088.5,1.4,1.4,0,0,1-1.28.895c-.872,0-1.192-.7-1.192-1.711V38.895H31.32v3.124c0,1.865,1.006,2.34,1.845,2.34a2,2,0,0,0,1.766-.994h.022l.056.872h.861c-.033-.419-.044-.905-.044-1.468Zm1.062,3.963c0,.475-.011,1.015-.044,1.38h.839l.056-.883h.022a1.914,1.914,0,0,0,1.789,1.006c1.192,0,2.4-.951,2.4-2.87,0-1.612-.927-2.715-2.252-2.715a1.982,1.982,0,0,0-1.821.971h-.023V36.4h-.972Zm.97-1.723a1.523,1.523,0,0,1,.056-.408,1.539,1.539,0,0,1,1.468-1.192c1.038,0,1.59.916,1.59,2,0,1.225-.6,2.053-1.622,2.053A1.51,1.51,0,0,1,37.89,42.45a1.826,1.826,0,0,1-.033-.353Zm9.052.607a2.368,2.368,0,0,0,.033-.452,2.254,2.254,0,0,0-2.2-2.516,2.6,2.6,0,0,0-2.516,2.881,2.492,2.492,0,0,0,2.628,2.694,4.353,4.353,0,0,0,1.789-.342l-.178-.7a3.475,3.475,0,0,1-1.479.276,1.7,1.7,0,0,1-1.821-1.845Zm-3.731-.7a1.6,1.6,0,0,1,1.49-1.579A1.382,1.382,0,0,1,46,41.048Z" transform="translate(0 -32.469)" fill="#070707"/>
  <path id="Path_22236" data-name="Path 22236" d="M408.036,11.751h-.679A10,10,0,0,0,397.3,1.834V1.155A10.68,10.68,0,0,1,408.036,11.751Zm.469-3.647A10.221,10.221,0,0,0,401.423.809l.157-.544a10.792,10.792,0,0,1,7.474,7.708Zm.761-3.219a10.415,10.415,0,0,0-4.026-4.5L405.475,0a10.869,10.869,0,0,1,4.205,4.7Z" transform="translate(-354.383)" fill="#499cd2"/>
</svg>
