<svg xmlns="http://www.w3.org/2000/svg" xmlns:xlink="http://www.w3.org/1999/xlink" width="53.564" height="15.891" viewBox="0 0 53.564 15.891">
  <defs>
    <clipPath id="clip-path">
      <rect id="Rectangle_537" data-name="Rectangle 537" width="53.564" height="15.89" fill="none"/>
    </clipPath>
  </defs>
  <g id="Group_2375" data-name="Group 2375" clip-path="url(#clip-path)">
    <path id="Path_22210" data-name="Path 22210" d="M5.713,7.767a2.159,2.159,0,0,1-.226.986,2.208,2.208,0,0,1-.625.768,3.068,3.068,0,0,1-.961.494,3.992,3.992,0,0,1-1.219.176A4.376,4.376,0,0,1,1.26,9.978,4.306,4.306,0,0,1,0,9.259L.693,8.13a4.515,4.515,0,0,0,.9.613,1.857,1.857,0,0,0,.822.193,1.235,1.235,0,0,0,.83-.266.886.886,0,0,0,.315-.718,1.161,1.161,0,0,0-.056-.365,1.025,1.025,0,0,0-.21-.346,2.929,2.929,0,0,0-.419-.386q-.265-.211-.685-.517c-.214-.151-.425-.308-.627-.469a4.759,4.759,0,0,1-.559-.517,2.364,2.364,0,0,1-.4-.616,1.878,1.878,0,0,1-.153-.774A1.979,1.979,0,0,1,.666,3.05a2.072,2.072,0,0,1,.571-.7A2.649,2.649,0,0,1,2.1,1.9a3.623,3.623,0,0,1,1.1-.162,4.429,4.429,0,0,1,1.22.162,4.17,4.17,0,0,1,1.09.492L4.887,3.4a2.329,2.329,0,0,0-1.356-.453,1.126,1.126,0,0,0-.718.224.7.7,0,0,0-.283.567.816.816,0,0,0,.249.582,8.367,8.367,0,0,0,.862.729q.613.453,1.022.792a4.511,4.511,0,0,1,.639.64,1.84,1.84,0,0,1,.324.608,2.41,2.41,0,0,1,.086.677" transform="translate(0 1.855)" fill="#070707"/>
    <path id="Path_22211" data-name="Path 22211" d="M11.647,5.782a5.112,5.112,0,0,1-.29,1.752,4.413,4.413,0,0,1-.812,1.4A3.612,3.612,0,0,1,7.775,10.19a3.694,3.694,0,0,1-.7-.061,2.4,2.4,0,0,1-.617-.22,2.963,2.963,0,0,1-.573-.4,5.574,5.574,0,0,1-.592-.6v5.12H3.22V1.921H5.3L5.306,3.1a3.713,3.713,0,0,1,1.229-1.04,3.408,3.408,0,0,1,1.534-.33,3.453,3.453,0,0,1,1.449.3,3.372,3.372,0,0,1,1.132.833,3.719,3.719,0,0,1,.735,1.276,4.926,4.926,0,0,1,.262,1.649M9.39,5.863a3.586,3.586,0,0,0-.538-2.092A1.686,1.686,0,0,0,7.394,3a1.787,1.787,0,0,0-1.548.814,3.8,3.8,0,0,0-.569,2.209,3.586,3.586,0,0,0,.56,2.134,1.8,1.8,0,0,0,1.536.777,1.524,1.524,0,0,0,.968-.3,2.249,2.249,0,0,0,.617-.76,3.542,3.542,0,0,0,.334-1,5.785,5.785,0,0,0,.1-1.011" transform="translate(3.465 1.86)" fill="#070707"/>
    <rect id="Rectangle_536" data-name="Rectangle 536" width="2.13" height="11.85" transform="translate(16.036)" fill="#070707"/>
    <path id="Path_22212" data-name="Path 22212" d="M14.991,9.9l0-1.082a4.014,4.014,0,0,1-1.263.978,3.547,3.547,0,0,1-1.505.3,3.166,3.166,0,0,1-1.609-.38,2.174,2.174,0,0,1-.944-1.126,1.66,1.66,0,0,1-.122-.371c-.027-.129-.052-.278-.073-.444a5.526,5.526,0,0,1-.04-.575c-.006-.214-.009-.48-.009-.79v-4.6h2.127V6.44a5.886,5.886,0,0,0,.056.938,1.835,1.835,0,0,0,.2.582,1.375,1.375,0,0,0,1.314.679,1.658,1.658,0,0,0,1.657-1,2.365,2.365,0,0,0,.162-.573,6.544,6.544,0,0,0,.048-.9V1.815h2.127V9.9Z" transform="translate(10.141 1.953)" fill="#070707"/>
    <path id="Path_22213" data-name="Path 22213" d="M19.425,9.989V5.376a5.591,5.591,0,0,0-.061-.937,1.8,1.8,0,0,0-.2-.582,1.373,1.373,0,0,0-1.314-.677,2.038,2.038,0,0,0-1.03.249,1.535,1.535,0,0,0-.642.735,2.346,2.346,0,0,0-.156.59,7.813,7.813,0,0,0-.04.878V9.988H13.838V1.923h2.147l0,1.079a4.022,4.022,0,0,1,1.262-.978,3.554,3.554,0,0,1,1.505-.3,3.08,3.08,0,0,1,1.609.394,2.28,2.28,0,0,1,.947,1.121,3.713,3.713,0,0,1,.112.365,3.246,3.246,0,0,1,.081.425,5.274,5.274,0,0,1,.041.575c0,.22.009.486.009.8V9.988Z" transform="translate(14.892 1.859)" fill="#070707"/>
    <path id="Path_22214" data-name="Path 22214" d="M23.624,12.011,20.413,7.556v4.295H18.264V0h2.149V6.958h.224L23.5,3.646l1.613.7L22.364,7.277l3.247,4.036Z" transform="translate(19.654 0.001)" fill="#070707"/>
    <path id="Path_22215" data-name="Path 22215" d="M22.69,9.63V8.21L27.7,5.744,22.69,3.308V1.859L29.147,5.1V6.42Z" transform="translate(24.418 2.001)" fill="#569432"/>
    <path id="Path_22216" data-name="Path 22216" d="M23.223,1.549h.094c.106,0,.2-.04.2-.139,0-.07-.052-.141-.2-.141a.532.532,0,0,0-.094.006Zm0,.446h-.129V1.189a1.387,1.387,0,0,1,.229-.019.425.425,0,0,1,.251.061.19.19,0,0,1,.075.168.2.2,0,0,1-.158.2V1.6c.07.012.119.077.135.2a.7.7,0,0,0,.052.2h-.135a.559.559,0,0,1-.056-.205.151.151,0,0,0-.173-.141h-.091ZM23.358.962a.6.6,0,0,0-.579.614.6.6,0,0,0,.583.613.59.59,0,0,0,.579-.608.6.6,0,0,0-.579-.617Zm0-.112a.72.72,0,1,1-.516.215A.715.715,0,0,1,23.363.85Z" transform="translate(24.371 0.916)" fill="#569432"/>
  </g>
</svg>
