<svg xmlns="http://www.w3.org/2000/svg" width="14" height="14" viewBox="0 0 14 14">
  <path id="Path_2483" data-name="Path 2483" d="M1707.513,612.333a7,7,0,1,0,7,7,7,7,0,0,0-7-7Zm5.406,8.6-1.949.448-1.19-1.232.452-1.836,1.225-.669,1.844.886a5.791,5.791,0,0,1-.166,2.395.574.574,0,0,0-.215.009Zm-5.874-6.039-.092,1.711-1.652.919-1.324-.442-.586-1.886a5.856,5.856,0,0,1,2.109-1.348Zm-.435,10.213a5.827,5.827,0,0,1-2.977-1.409l.527-1.877h2.147l1.316,1.544Zm1.307.055.913-1.568a.579.579,0,0,0-.06-.666l-1.755-2.059a.578.578,0,0,0-.44-.2h-2.852a.579.579,0,0,0-.557.422l-.445,1.584a5.829,5.829,0,0,1-.2-6.372l.438,1.411a.578.578,0,0,0,.369.377l1.847.617a.579.579,0,0,0,.465-.043l2.154-1.2a.579.579,0,0,0,.3-.474l.127-2.357a.578.578,0,0,0-.253-.51l-.9-.611c.149-.012.3-.019.451-.019a5.852,5.852,0,0,1,5.379,3.562l-1.2-.577a.578.578,0,0,0-.528.013l-1.709.934a.579.579,0,0,0-.285.37l-.589,2.393a.579.579,0,0,0,.146.54l1.639,1.7a.579.579,0,0,0,.416.177.563.563,0,0,0,.13-.015l1.7-.391a5.849,5.849,0,0,1-4.691,2.968Z" transform="translate(-1700.513 -612.333)" fill="#fff"/>
</svg>
