<svg id="database-icon2" xmlns="http://www.w3.org/2000/svg" xmlns:xlink="http://www.w3.org/1999/xlink" width="48.293" height="39.042" viewBox="0 0 48.293 39.042">
  <defs>
    <linearGradient id="linear-gradient" x1="-4.183" y1="0.143" x2="-3.174" y2="0.794" gradientUnits="objectBoundingBox">
      <stop offset="0" stop-color="#909ca9"/>
      <stop offset="1" stop-color="#ededee"/>
    </linearGradient>
    <linearGradient id="linear-gradient-2" x1="-8.133" y1="37.388" x2="-6.64" y2="37.388" gradientUnits="objectBoundingBox">
      <stop offset="0" stop-color="#939fab"/>
      <stop offset="1" stop-color="#dcdee1"/>
    </linearGradient>
    <radialGradient id="radial-gradient" cx="0.443" cy="0.439" r="0.128" gradientTransform="matrix(-0.691, -0.149, -0.208, 1.978, -19.227, -9.973)" gradientUnits="objectBoundingBox">
      <stop offset="0" stop-color="#ee352c"/>
      <stop offset="1" stop-color="#a91d22"/>
    </radialGradient>
  </defs>
  <g id="Group_2398" data-name="Group 2398" transform="translate(17.374)">
    <path id="Path_22302" data-name="Path 22302" d="M347.875,463.277l-5.332,1.741-4.64,2.046-1.3.343c-.331.314-.677.633-1.053.956-.411.354-.794.677-1.089.911a8.118,8.118,0,0,0-1.056,1.048,4.748,4.748,0,0,0-.782,1.322,2.219,2.219,0,0,0,.314,2,7.067,7.067,0,0,0,2.914,2.189,18.492,18.492,0,0,0,2.563.858,33.931,33.931,0,0,0,5.466.778,6.243,6.243,0,0,0,.706,0,9.593,9.593,0,0,0,.52-.987,24.97,24.97,0,0,0,1.89-5,23.708,23.708,0,0,0,.483-3.466c.028-.391.04-1.7.016-2.144a15.074,15.074,0,0,0-.2-1.89.435.435,0,0,1-.012-.166,6.923,6.923,0,0,1,.721-.218l-.133-.314h0Zm-1.217.713a13.043,13.043,0,0,1,.209,2.019,1.075,1.075,0,0,1,0,.274c-.033,0-.682-.383-1.145-.673-.4-.254-1.169-.762-1.29-.858-.04-.028-.036-.033.294-.145C345.283,464.414,346.613,463.99,346.658,463.99Zm-2.717.894a1.34,1.34,0,0,1,.351.186,24.99,24.99,0,0,0,2.443,1.358c.149.064.166.04-.178.274a17.564,17.564,0,0,1-2.769,1.488c-.2.093-.363.157-.366.157a1.046,1.046,0,0,1,.048-.221,11.881,11.881,0,0,0,.431-2.834c0-.4,0-.4.04-.416l0,.008Zm-.558.214a8.7,8.7,0,0,1-.024,1.173,10.251,10.251,0,0,1-.372,1.754,2.688,2.688,0,0,1-.093.279,7.1,7.1,0,0,1-.749-.73,5.452,5.452,0,0,1-.744-1.08,3.4,3.4,0,0,1-.226-.549c.066-.044,2.19-.863,2.2-.846Zm-2.636,1.036a.015.015,0,0,1,.012,0,.758.758,0,0,1,.06.145,5.45,5.45,0,0,0,.669,1.2,6.822,6.822,0,0,0,.93,1c.093.081.186.157.2.169s.033.02-.625.27c-.762.29-1.592.58-2.544.887l-.682.221c-.036.012-.024-.008.081-.173a22.663,22.663,0,0,0,1.592-3.209c.069-.178.137-.355.149-.4a.145.145,0,0,1,.093-.105.393.393,0,0,1,.064-.011Zm-.806.335a9.019,9.019,0,0,1-.4.837c-.391.761-.818,1.512-1.395,2.422-.093.157-.186.3-.2.319s-.028.02-.093-.105a3.693,3.693,0,0,1-.311-.935,3.763,3.763,0,0,1,.02-1.2c.052-.25.048-.246.169-.306.518-.264,2.187-1.046,2.2-1.029Zm6.953.279v.169a21.924,21.924,0,0,1-.238,3.031c-.024.157-.045.286-.048.29s-.117-.033-.254-.073a10.4,10.4,0,0,1-1.854-.794,8.206,8.206,0,0,1-.943-.58s.173-.093.372-.2a23.743,23.743,0,0,0,2.2-1.294c.246-.166.616-.431.7-.5Zm-10,1.2c.016,0,.012.033-.012.178-.016.105-.036.3-.045.431a2.983,2.983,0,0,0,.355,1.621,3.357,3.357,0,0,1,.141.306c-.028.024-2.7.806-3.533,1.036l-.484.133c-.028.008-.033,0-.02-.064a4.234,4.234,0,0,1,1.173-2.019,5.212,5.212,0,0,1,1.326-1.016c.411-.233,1.044-.584,1.093-.6C336.887,467.947,336.89,467.947,336.9,467.947Zm6.288,1.125a1.618,1.618,0,0,1,.218.117,12.144,12.144,0,0,0,3.088,1.2l.093.021-.129.073c-.536.3-2.3,1.032-4.1,1.705-.262.093-.52.193-.568.214a.293.293,0,0,1-.093.028s.073-.145.166-.319a19.892,19.892,0,0,0,1.27-2.89c.032-.08.051-.149.056-.152Zm-.641.209a1.156,1.156,0,0,1-.069.186,25.527,25.527,0,0,1-1.395,2.817c-.149.266-.274.48-.279.48s-.125-.073-.27-.161a8.289,8.289,0,0,1-2.108-1.794l-.073-.093.366-.1a26.312,26.312,0,0,0,3.539-1.222c.153-.063.287-.116.287-.116Zm3.982,1.395h0c0,.093-.2.923-.372,1.524-.141.5-.262.9-.483,1.6-.093.307-.186.558-.186.558a.267.267,0,0,1-.052-.012,16.848,16.848,0,0,1-3.278-.923c-.279-.112-.685-.295-.709-.314a4.736,4.736,0,0,1,.54-.254c1.834-.8,3.737-1.714,4.39-2.1a.528.528,0,0,1,.151-.077Zm-9.195.314c.008.008-.5.744-1.222,1.749-.25.351-.54.762-.651.915s-.274.4-.367.54l-.169.262-.186-.153a6.721,6.721,0,0,1-.749-.766,3.309,3.309,0,0,1-.673-1.3c-.045-.193-.045-.29,0-.3.06-.016,1.137-.27,2.144-.5.558-.129,1.209-.279,1.443-.338s.427-.107.431-.107Zm.516.2.129.145a7.571,7.571,0,0,0,1.89,1.548,1.058,1.058,0,0,1,.218.141c-.028.02-2.491.894-3.632,1.29-.641.226-1.169.407-1.173.407a.7.7,0,0,1-.081-.052l-.072-.052.117-.169c.378-.549.854-1.149,1.89-2.4Zm3.217,2.3s.186.06.4.141a12.925,12.925,0,0,0,1.5.465,16.552,16.552,0,0,0,2.261.391c.093.008.137.016.121.028s-.621.214-1.056.35c-.694.218-2.81.842-4.535,1.338-.318.093-.592.169-.609.173a.319.319,0,0,1-.173-.045,2.915,2.915,0,0,1,.214-.27,23.932,23.932,0,0,0,1.636-2.2c.133-.208.246-.374.246-.378Zm-.709.02s-.279.465-.782,1.253c-.214.335-.452.713-.536.846s-.2.331-.27.444l-.117.206-.06-.016c-.145-.04-1.165-.4-1.435-.508a9.982,9.982,0,0,1-.939-.431,3.924,3.924,0,0,1-.694-.44c.008,0,.558-.154,1.225-.335,1.767-.48,2.745-.758,3.386-.96a1.649,1.649,0,0,1,.22-.065Zm5.021,1.177h0c.016.04-.637,1.854-.875,2.427-.052.129-.073.161-.1.157-.069,0-1.015-.137-1.592-.221-1-.153-2.689-.447-3.112-.544l-.093-.02.6-.137c1.29-.29,1.911-.447,2.539-.641a17.935,17.935,0,0,0,2.374-.915,1.953,1.953,0,0,1,.256-.113Z" transform="translate(-332.512 -450.846)" fill="url(#linear-gradient)"/>
    <path id="Path_22303" data-name="Path 22303" d="M462.07,82.734a25.633,25.633,0,0,0-2.443.879,15.259,15.259,0,0,0-2.81,1.414,2.134,2.134,0,0,0-.544.544.377.377,0,0,0-.024.137l.54.512,1.286.411,3.059.549,3.5.6.036-.3h-.033l-.459-.073-.093-.166c-.476-.837-1-1.878-1.3-2.58a13.34,13.34,0,0,1-.589-1.624c-.069-.274-.076-.29-.121-.294h0Zm-.064.205h0s.021.117.036.25a8.424,8.424,0,0,0,.391,1.7c.149.443.149.419-.024.367-.411-.113-2.253-.431-3.587-.616-.214-.028-.4-.057-.4-.06-.016-.016.963-.528,1.395-.73.556-.254,2.072-.887,2.184-.907Zm-3.886,1.808.157.052a24.023,24.023,0,0,0,4.184.8l.25.024a1.863,1.863,0,0,1-.254.133c-.573.286-1.2.637-1.636.907a1.672,1.672,0,0,1-.262.145c-.016,0-.1-.016-.186-.028l-.161-.024-.4-.4c-.709-.689-1.266-1.222-1.479-1.423Zm-.161.125.568.709c.311.391.625.774.694.858a1.313,1.313,0,0,1,.121.157c-.016.012-.822-.145-1.25-.242s-.621-.149-.891-.233l-.221-.073v-.057c0-.27.347-.673.93-1.084Zm4.829.967c.016,0,.036.036.085.145.137.3.564,1.116.669,1.274.033.052.093.057-.48-.036-1.367-.221-1.806-.294-1.806-.3a.419.419,0,0,1,.093-.06,7.87,7.87,0,0,0,1.229-.851c.093-.076.178-.149.193-.161s.011-.014.015-.009Z" transform="translate(-452.205 -82.734)" fill="url(#linear-gradient-2)"/>
    <path id="Path_22304" data-name="Path 22304" d="M394.949,167.757a.4.4,0,0,0,0,.351,1.592,1.592,0,0,0,.379.447s1.794,1.75,2.011,2a5.6,5.6,0,0,1,1.464,3.829,6.2,6.2,0,0,1-.637,2.9c-.837,1.83-2.6,3.849-5.337,6.091l.4-.133a12.8,12.8,0,0,1,1.431-.851,51.015,51.015,0,0,1,6.656-2.975,83,83,0,0,1,13.507-3.62l.367-.057-.057-.093a12.435,12.435,0,0,0-.81-1.141,9.686,9.686,0,0,0-2.862-2.382,21.224,21.224,0,0,0-6.212-2.084c-.488-.093-1.56-.279-2.43-.416-1.847-.286-3.04-.484-4.353-.709-.471-.081-1.177-.2-1.645-.3a10.426,10.426,0,0,1-1.068-.286C395.457,168.213,395.034,168.1,394.949,167.757Zm1.04,1.008a1.128,1.128,0,0,1,.153.048c.153.052.351.113.585.178q.265.073.532.141c.242.06.444.117.447.117.028.028.435,1.331.573,1.83.052.186.093.351.093.351a.816.816,0,0,1-.1-.157,8.391,8.391,0,0,0-2.08-2.35A1.714,1.714,0,0,1,395.989,168.765Zm1.983.549a1.581,1.581,0,0,1,.218.036c.685.153,1.914.387,2.7.52a.988.988,0,0,1,.238.052.409.409,0,0,1-.109.069c-.133.069-.669.387-.846.508a7.723,7.723,0,0,0-1.141.911c-.117.117-.218.214-.218.214s-.024-.069-.045-.153a13.074,13.074,0,0,0-.722-1.975,1.725,1.725,0,0,1-.081-.186C397.968,169.317,397.968,169.313,397.973,169.313Zm3.49.665a1.551,1.551,0,0,1,.145.447,6.6,6.6,0,0,1,.193,1.847q0,.174-.024.347l-.012.04-.209-.069c-.431-.137-1.132-.343-1.733-.512-.343-.093-.621-.178-.621-.186a9.537,9.537,0,0,1,.713-.713,18.742,18.742,0,0,1,1.548-1.2Zm.279.04c.012-.012,1.669.274,2.422.419.558.109,1.374.279,1.423.3.024.008-.06.057-.331.178a17.491,17.491,0,0,0-2.641,1.435c-.206.137-.379.25-.383.25a2.2,2.2,0,0,1-.008-.258,5.629,5.629,0,0,0-.435-2.192.6.6,0,0,1-.047-.13Zm4.285.846a3.042,3.042,0,0,1-.093.532,10.106,10.106,0,0,1-1.015,2.33,2.671,2.671,0,0,1-.169.274,1.719,1.719,0,0,1-.242-.129,13.123,13.123,0,0,0-1.581-.774c-.161-.069-.3-.125-.306-.133-.028-.024,1.27-.882,1.953-1.294.55-.33,1.437-.822,1.453-.805Zm.306.048c.036,0,.77.2,1.153.314a23.783,23.783,0,0,1,2.745,1l.294.133-.206.048a30.05,30.05,0,0,0-4.649,1.439c-.117.048-.221.093-.23.093a1.037,1.037,0,0,1,.085-.205,8.159,8.159,0,0,0,.778-2.684c.006-.08.018-.14.03-.14Zm-7.3,1.674c.012-.012.573.121.875.205.459.129,1.435.456,1.435.48,0,0-.109.093-.238.209-.528.44-1.036.9-1.645,1.488-.186.173-.335.314-.342.314s-.012-.024-.008-.057a9.089,9.089,0,0,0-.057-2.431,1.087,1.087,0,0,1-.017-.205Zm11.774.012a7.738,7.738,0,0,1-.428.665c-.242.347-.6.806-1.395,1.814-.423.532-.9,1.132-1.056,1.334s-.295.372-.3.372a1.382,1.382,0,0,1-.112-.161,8.332,8.332,0,0,0-1.633-1.8c-.121-.1-.254-.209-.3-.242a.447.447,0,0,1-.081-.069c0-.012.685-.307,1.209-.516.911-.372,2.152-.814,3.083-1.1.482-.15,1-.3,1.01-.291Zm.311.081a.931.931,0,0,1,.23.112,13.668,13.668,0,0,1,2.7,2.023c.214.209.744.758.734.761s-.186.016-.4.033a39.732,39.732,0,0,0-5.958.991c-.141.033-.266.06-.274.06s.149-.157.347-.347a10.315,10.315,0,0,0,2.446-3.254c.093-.2.173-.366.186-.379Zm-8.977.92c.057.012.58.258.975.456.363.186.907.471.935.5,0,0-.186.105-.427.221-.758.379-1.407.737-2.084,1.149-.193.117-.354.214-.359.214s-.012-.016.093-.214a8.416,8.416,0,0,0,.818-2.221c.02-.057.035-.1.047-.1Zm-.524.093a7.709,7.709,0,0,1-.209.778,9.929,9.929,0,0,1-.713,1.636l-.214.372-.1.161-.226-.218a2.962,2.962,0,0,0-.749-.552,1.083,1.083,0,0,1-.193-.113c0-.033.689-.657,1.217-1.108.375-.321,1.176-.962,1.188-.95Zm3.2,1.318.2.129a15.324,15.324,0,0,1,1.395,1.027c.23.186.673.589.762.685l.048.052-.326.093c-1.847.512-3.273.967-4.938,1.581-.186.069-.343.125-.355.125s-.045.02.372-.363a17.7,17.7,0,0,0,2.709-3.112Zm-.842.209c.008.008-.544.786-.875,1.225-.4.524-1.1,1.4-1.581,1.975-.2.238-.372.435-.383.44s-.016-.057-.016-.149a3.379,3.379,0,0,0-.343-1.451c-.093-.186-.109-.23-.093-.25.076-.069,1.25-.737,1.992-1.137.5-.258,1.284-.654,1.3-.646Zm-5.1,1.25a1.769,1.769,0,0,1,.21.105,4.429,4.429,0,0,1,.694.465,1.207,1.207,0,0,1-.233.193c-.383.274-.963.713-1.3.984-.355.279-.366.29-.326.23a6.917,6.917,0,0,0,.879-1.774.685.685,0,0,1,.079-.2Zm1.358,1.064c.021,0,.045.033.153.193a2.907,2.907,0,0,1,.452,1.173l.008.081-.552.214c-.987.383-1.9.762-2.515,1.044-.173.081-.476.226-.673.323s-.359.178-.359.173.125-.093.279-.209a16.253,16.253,0,0,0,3.031-2.789c.085-.1.161-.193.169-.2Zm-.625.153a8.528,8.528,0,0,1-.758.854,13.367,13.367,0,0,1-2.5,2.02l-.242.153c-.028.016.008-.024.428-.48.266-.286.465-.528.7-.827a1.363,1.363,0,0,1,.4-.383c.591-.42,1.958-1.347,1.974-1.33Z" transform="translate(-390.853 -164.98)" fill="url(#radial-gradient)"/>
  </g>
  <path id="Path_22305" data-name="Path 22305" d="M8.682,792.934c-.074,0-.149.008-.222.008a3.322,3.322,0,0,0-3.107,2.032,5.357,5.357,0,0,0,.006,3.868,3.355,3.355,0,0,0,2.825,1.981c.3.049.507.216,1.093.9l.722.847h1.311l-.871-.879a9.278,9.278,0,0,1-.871-.938c0-.037.186-.117.407-.186a3,3,0,0,0,1.773-1.662,3.488,3.488,0,0,0,.444-1.785c.129-2.59-1.236-4.208-3.509-4.19ZM9.831,799.7a3.084,3.084,0,0,1-2.167.149,2.8,2.8,0,0,1-1.5-1.613,4.58,4.58,0,0,1,.086-2.953,2.492,2.492,0,0,1,2.366-1.552c1.594,0,2.5.976,2.619,2.811.093,1.531-.419,2.681-1.4,3.161Zm22.64-4.556a1.4,1.4,0,0,0-1.254.661l-.222.347v-.9h-.951v5.412h.951v-1.73c0-1.581.02-1.767.241-2.2a1.187,1.187,0,0,1,1.335-.744l.34.1v-.938h-.439Zm-5.589-.049a3.076,3.076,0,0,0-1.817,5,2.944,2.944,0,0,0,3.243.465c.216-.093.451-.2.451-.2v-.852l-.451.233a2.138,2.138,0,0,1-2.417-.079,2.438,2.438,0,0,1-.651-1.433h3.836v-.73a2.152,2.152,0,0,0-2.2-2.4h0Zm-1.552,2.373A2.218,2.218,0,0,1,26,796.18a1.435,1.435,0,0,1,.828-.265,1.325,1.325,0,0,1,.8.272,2.11,2.11,0,0,1,.558,1.278H25.33ZM2.393,796.5c-1.031-.625-1.488-1.076-1.433-1.607.16-1.47,1.977-1.266,2.983-.71l.007-.989a3.88,3.88,0,0,0-1.353-.254,2.3,2.3,0,0,0-2.384,1.2c-.544,1.209-.062,2.112,1.679,3.126.977.569,1.41,1.063,1.41,1.6,0,1.116-1.341,1.5-2.724.8-.285-.141-.525-.26-.538-.26a8.539,8.539,0,0,0-.024,1.069,5.918,5.918,0,0,0,1.063.3c1.581.315,3.02-.427,3.156-1.631.118-1.131-.29-1.724-1.84-2.65h0Zm38.494-1.409a2.884,2.884,0,0,0-.588.069,3.17,3.17,0,0,0-1.229,4.928,2.95,2.95,0,0,0,3.25.465c.216-.093.45-.2.45-.2V799.5l-.451.235a2.139,2.139,0,0,1-2.417-.081,2.408,2.408,0,0,1-.651-1.433h3.83v-.736a2.15,2.15,0,0,0-2.2-2.4h0Zm-1.552,2.373a2.254,2.254,0,0,1,.668-1.3,1.428,1.428,0,0,1,.827-.266,1.324,1.324,0,0,1,.8.272,2.124,2.124,0,0,1,.558,1.285H39.34v.007ZM21.9,796.508c-1.031-.623-1.488-1.076-1.433-1.607.16-1.471,1.977-1.266,2.983-.71l.007-.989a3.859,3.859,0,0,0-1.353-.252,2.3,2.3,0,0,0-2.385,1.2c-.543,1.209-.055,2.112,1.68,3.126.976.568,1.409,1.055,1.409,1.594,0,1.116-1.341,1.507-2.724.8-.279-.141-.524-.258-.538-.258a8.541,8.541,0,0,0-.017,1.067,6.481,6.481,0,0,0,1.055.3c1.581.316,3.022-.425,3.161-1.629.117-1.125-.29-1.718-1.834-2.644h0Zm24.58-1.372a1.394,1.394,0,0,0-1.254.662l-.222.346v-.9h-.947v5.41H45v-1.73c0-1.581.02-1.767.241-2.2a1.186,1.186,0,0,1,1.335-.744l.34.1v-.94h-.438Zm-32.146,1.341V793.03h-.955v7.635H17.41v-.9H14.335v-3.287Zm22.182,1.075-.79,2.058-.761-2.069-.772-2.292h-.978c.636,1.8,1.329,3.638,2.026,5.417.3.007.605,0,.908,0l1.067-2.681,1.088-2.736h-.939s-.415,1.087-.846,2.3Zm-19.972-6.6a.525.525,0,0,0,.39-.156.517.517,0,0,0,.16-.382.508.508,0,0,0-.16-.382.533.533,0,0,0-.382-.149.525.525,0,0,0-.39.154.515.515,0,0,0-.154.382.5.5,0,0,0,.154.382.521.521,0,0,0,.382.149h0Zm-.34-.879a.485.485,0,0,1,.828.34.476.476,0,0,1-.141.346.465.465,0,0,1-.34.136.452.452,0,0,1-.34-.136.476.476,0,0,1-.141-.346.456.456,0,0,1,.139-.344Zm.229.39h.062c.044,0,.087.043.124.124l.074.167h.117l-.093-.186c-.037-.074-.074-.117-.117-.129a.225.225,0,0,0,.129-.068.17.17,0,0,0,.043-.124.158.158,0,0,0-.055-.13.31.31,0,0,0-.2-.055h-.2v.692h.1v-.29Zm0-.322h.086a.222.222,0,0,1,.13.032c.023.018.03.043.03.086,0,.08-.049.118-.141.118h-.106v-.237ZM.585,790.4c0-.241-.007-.42-.013-.525h.01a1.579,1.579,0,0,0,.08.279l.92,2.058h.154l.92-2.075a1.87,1.87,0,0,0,.08-.26h.007c-.019.206-.025.384-.025.526v1.816h.315v-2.7H2.641L1.795,791.4c-.032.074-.074.186-.129.333H1.652a2.168,2.168,0,0,0-.124-.32l-.828-1.9H.279v2.7h.3V790.4H.59Zm3.138,0H4v1.681H3.727Zm.136-.617A.192.192,0,0,0,4,789.731a.2.2,0,0,0,.062-.141A.177.177,0,0,0,4,789.448a.2.2,0,0,0-.143-.057.194.194,0,0,0-.141.057.2.2,0,0,0-.062.141.171.171,0,0,0,.062.141.2.2,0,0,0,.141.057Zm2.075,2.335v-.3a.783.783,0,0,1-.475.166.616.616,0,0,1-.477-.2.768.768,0,0,1-.179-.532.8.8,0,0,1,.192-.558.622.622,0,0,1,.482-.2.79.79,0,0,1,.457.149v-.326a.944.944,0,0,0-.444-.1.952.952,0,0,0-.73.291,1.086,1.086,0,0,0-.271.765.981.981,0,0,0,.246.693.877.877,0,0,0,.668.279,1.089,1.089,0,0,0,.531-.136Zm.778-.9a.872.872,0,0,1,.141-.524.388.388,0,0,1,.315-.167.363.363,0,0,1,.233.062v-.322a.492.492,0,0,0-.186-.025.472.472,0,0,0-.3.106.65.65,0,0,0-.209.325h0v-.394H6.4v1.927H6.71v-.989Zm1.773,1.023a.912.912,0,0,0,.7-.279,1.215,1.215,0,0,0,.019-1.477.852.852,0,0,0-.673-.266.967.967,0,0,0-.7.254,1.051,1.051,0,0,0-.279.778,1,1,0,0,0,.246.71.9.9,0,0,0,.692.279h0Zm-.439-1.57a.609.609,0,0,1,.465-.186.576.576,0,0,1,.457.186,1.033,1.033,0,0,1,.012,1.106.563.563,0,0,1-.465.2.6.6,0,0,1-.47-.2.781.781,0,0,1-.173-.544.756.756,0,0,1,.178-.562Zm2.748,1.4a.506.506,0,0,0,.18-.4.482.482,0,0,0-.141-.352,1.091,1.091,0,0,0-.359-.21,1.126,1.126,0,0,1-.29-.161.265.265,0,0,1-.08-.2.233.233,0,0,1,.093-.192.382.382,0,0,1,.248-.073.726.726,0,0,1,.439.137v-.312a.906.906,0,0,0-.415-.093.735.735,0,0,0-.489.16.529.529,0,0,0-.068.744,1,1,0,0,0,.346.216,1.306,1.306,0,0,1,.315.18.236.236,0,0,1,.08.186c0,.179-.124.272-.364.272a.763.763,0,0,1-.5-.186v.333a.91.91,0,0,0,.475.118.837.837,0,0,0,.531-.18Zm1.478-1.85a.967.967,0,0,0-.7.254,1.056,1.056,0,0,0-.279.778.944.944,0,0,0,1.636.71,1.037,1.037,0,0,0,.26-.744,1.057,1.057,0,0,0-.241-.735.871.871,0,0,0-.673-.266Zm.6,1.013a.829.829,0,0,1-.154.544.563.563,0,0,1-.465.2.6.6,0,0,1-.47-.2.781.781,0,0,1-.173-.544.792.792,0,0,1,.186-.568.609.609,0,0,1,.465-.186.586.586,0,0,1,.457.186.939.939,0,0,1,.154.568Zm.837.964h.308v-1.668h.451v-.259h-.457v-.3c0-.271.105-.406.322-.406a.425.425,0,0,1,.2.049v-.279a.568.568,0,0,0-.222-.031.575.575,0,0,0-.414.154.651.651,0,0,0-.2.5v.316h-.326v.259H13.7v1.661Zm1.265-.525c0,.377.166.569.507.569a.559.559,0,0,0,.29-.064v-.265a.322.322,0,0,1-.2.062.262.262,0,0,1-.221-.081.452.452,0,0,1-.069-.279v-1.088h.489v-.259h-.489v-.568c-.106.037-.21.068-.309.1v.465h-.333v.259h.327v1.143Zm33.154,3.552a.544.544,0,0,0-.926.39.505.505,0,0,0,.153.382.544.544,0,0,0,.39.149.531.531,0,0,0,.39-.154.522.522,0,0,0,.159-.382.536.536,0,0,0-.166-.384Zm-.049.73a.5.5,0,0,1-.68,0,.481.481,0,0,1-.141-.347.482.482,0,0,1,.963,0,.445.445,0,0,1-.152.342Zm-.279-.315a.268.268,0,0,0,.129-.068.17.17,0,0,0,.043-.125.158.158,0,0,0-.055-.129.312.312,0,0,0-.2-.055h-.2v.692h.1v-.29h.061c.043,0,.085.043.124.124l.073.166H48l-.093-.186c-.032-.081-.069-.118-.106-.129Zm-.068-.062h-.106v-.233h.087a.217.217,0,0,1,.129.031c.025.019.031.043.031.086,0,.08-.049.117-.141.117ZM30.5,790.2h.086v-.692h.229v-.086h-.548v.086H30.5Zm.524-.52a1.247,1.247,0,0,0,0-.153.429.429,0,0,0,.024.08l.266.594h.043l.263-.6c.007-.019.013-.043.025-.074-.006.061-.006.112-.006.149v.524h.093v-.778h-.113l-.242.533c-.006.02-.025.057-.037.1h-.007a.566.566,0,0,0-.035-.093l-.241-.544h-.125v.779h.087v-.52Z" transform="translate(-0.002 -763.529)" fill="#231f1f"/>
</svg>
