<svg width="12" height="18" viewBox="0 0 12 18" fill="none" xmlns="http://www.w3.org/2000/svg">
<path fill-rule="evenodd" clip-rule="evenodd" d="M10.6269 3.99806C10.6269 5.09409 10.2462 6.16608 9.55476 7.01656C9.37088 7.2426 9.40521 7.57494 9.63139 7.75869C9.72917 7.8382 9.84686 7.87693 9.96387 7.87693C10.1171 7.87693 10.2693 7.81032 10.3735 7.68206C11.2174 6.64412 11.6821 5.33579 11.6821 3.99806C11.6821 2.5984 11.1787 1.24392 10.2646 0.184017C10.0743 -0.0366708 9.74112 -0.0612528 9.52043 0.129086C9.29988 0.319287 9.2753 0.652447 9.4655 0.873135C10.2145 1.74161 10.6269 2.85136 10.6269 3.99806ZM1.71875 7.87693C1.83576 7.87693 1.95345 7.8382 2.05123 7.75869C2.27741 7.57494 2.3116 7.2426 2.12786 7.01656C1.4364 6.16608 1.05573 5.09409 1.05573 3.99806C1.05573 2.85136 1.46813 1.74161 2.21712 0.873136C2.40732 0.652586 2.38274 0.319425 2.16205 0.129087C1.9415 -0.0611145 1.60834 -0.0365325 1.418 0.184018C0.503937 1.24393 0.000488281 2.59854 0.000488281 3.9982C0.000488281 5.33579 0.46521 6.64412 1.3091 7.68219C1.41333 7.81046 1.56535 7.87693 1.71875 7.87693ZM2.84568 6.25038C2.94936 6.38826 3.10756 6.46091 3.26769 6.46091C3.3781 6.46091 3.48948 6.4263 3.58437 6.35489C3.81728 6.1798 3.86411 5.84897 3.68902 5.6162C3.34047 5.15257 3.14849 4.57799 3.14849 3.99805C3.14849 3.37773 3.36506 2.7717 3.75823 2.29187C3.9428 2.06651 3.90984 1.73404 3.68448 1.54933C3.45913 1.36476 3.12665 1.39772 2.94194 1.62308C2.39469 2.29104 2.09325 3.13452 2.09325 3.99805C2.09325 4.80541 2.36049 5.60521 2.84568 6.25038ZM7.9936 5.6162C8.34228 5.15271 8.53413 4.57799 8.53413 3.99805C8.53413 3.37773 8.3177 2.77183 7.92453 2.29173C7.73982 2.06637 7.77292 1.73404 7.99814 1.54933C8.22363 1.36476 8.55597 1.39772 8.74067 1.62308C9.28807 2.29104 9.58937 3.13452 9.58937 3.99805C9.58937 4.80527 9.32213 5.60521 8.83694 6.25038C8.73326 6.38826 8.57506 6.46091 8.41493 6.46091C8.30452 6.46091 8.19314 6.4263 8.09825 6.35489C7.86534 6.1798 7.81851 5.84911 7.9936 5.6162ZM9.3202 16.9459H10.8013C11.0927 16.9459 11.3289 17.1821 11.3289 17.4735C11.3289 17.7648 11.0927 18.001 10.8013 18.001H0.882688C0.591275 18.001 0.355069 17.7648 0.355069 17.4735C0.355069 17.1821 0.591275 16.9459 0.882688 16.9459H2.3609L5.05681 5.45499C4.5388 5.17511 4.18601 4.62717 4.18601 3.99806C4.18601 3.08578 4.92827 2.34352 5.84055 2.34352C6.75283 2.34352 7.49509 3.08578 7.49509 3.99806C7.49509 4.62703 7.14229 5.17511 6.62429 5.45499L9.3202 16.9459ZM5.22312 11.499L7.24062 12.7019L6.74871 10.6051L5.22312 11.499ZM6.43999 3.99806C6.43999 3.66765 6.1711 3.39876 5.84055 3.39876C5.51013 3.39876 5.24124 3.66765 5.24124 3.99806C5.24124 4.32861 5.51013 4.5975 5.84055 4.5975C6.1711 4.5975 6.43999 4.32861 6.43999 3.99806ZM6.49643 9.52996L5.84055 6.73435L4.97565 10.4211L6.49643 9.52996ZM7.00084 13.7873L4.53125 12.315L3.73227 15.7208L7.00084 13.7873ZM7.68763 14.607L3.73364 16.9459H8.23626L7.68763 14.607Z" fill="white"/>
</svg>
