<svg xmlns="http://www.w3.org/2000/svg" width="12.658" height="11.215" viewBox="0 0 12.658 11.215">
  <g id="Travel" transform="translate(-0.003 0)">
    <path id="Path_1503" data-name="Path 1503" d="M2659.116,624.926a2.435,2.435,0,0,0-1.475-1.412,2.543,2.543,0,0,0-2.233.654c-2.051,1.606-6.289,5.016-6.332,5.049a.492.492,0,0,0-.067.709.533.533,0,0,0,.733.065c.042-.034,4.275-3.439,6.322-5.042a1.678,1.678,0,0,1,1.3-.466,1.153,1.153,0,0,1,.61.483l-3.157,2.466a.5.5,0,0,0-.161.216l-2.443,6.34a.5.5,0,0,0,.306.647.536.536,0,0,0,.182.032.521.521,0,0,0,.488-.328l2.393-6.211,3.378-2.637A.493.493,0,0,0,2659.116,624.926Z" transform="translate(-2646.487 -623.45)" fill="#fff"/>
    <path id="Path_1504" data-name="Path 1504" d="M2639.628,658.719a.533.533,0,0,0-.732-.075l-3.671,2.867-1.474-3.291a.527.527,0,0,0-.685-.262.5.5,0,0,0-.27.662l1.747,3.9a.515.515,0,0,0,.353.289.534.534,0,0,0,.451-.1l4.2-3.282a.492.492,0,0,0,.077-.709Z" transform="translate(-2632.751 -652.959)" fill="#fff"/>
  </g>
</svg>
